<?xml
version="1.0" encoding="utf-8"?>
<!-- Generator: Adobe Illustrator 23.0.0, SVG Export Plug-In . SVG Version: 6.00 Build 0)  -->
<svg version="1.1" id="Layer_1" opacity="0.1" xmlns="http://www.w3.org/2000/svg" xmlns:xlink="http://www.w3.org/1999/xlink" x="0px" y="0px" viewBox="0 0 691 691" style="enable-background:new 0 0 691 691;" xml:space="preserve">
    <style type="text/css">
        .st0 {
            fill: #7C7B7B;
        }
    </style>
    <g>
        <path class="st0" d="M204.92,217.36c0.79,2.04,0.78,4.38-0.21,6.53c-0.75,1.6-1.93,2.84-3.35,3.66c-2.26,1.3-5.09,1.52-7.63,0.34
		c-1.61-0.75-2.84-1.93-3.66-3.35c-1.31-2.27-1.52-5.09-0.33-7.63l-4.71-2.21c-1.95,4.13-1.6,8.77,0.52,12.44
		c1.33,2.31,3.38,4.26,5.97,5.46c4.14,1.92,8.76,1.58,12.43-0.55l0-0.01c2.31-1.33,4.25-3.37,5.46-5.96
		c1.61-3.48,1.63-7.31,0.34-10.62L204.92,217.36L204.92,217.36z"/>
        <path class="st0" d="M214.7,193.46c0.31,2.17-0.23,4.46-1.68,6.32c-1.09,1.39-2.52,2.33-4.09,2.81c-2.5,0.76-5.3,0.34-7.51-1.38
		c-1.4-1.09-2.33-2.52-2.81-4.09c-0.76-2.5-0.34-5.3,1.39-7.5l-4.09-3.22c-2.83,3.59-3.53,8.19-2.29,12.24
		c0.78,2.55,2.33,4.91,4.59,6.67c3.6,2.8,8.19,3.51,12.24,2.26l0-0.01c2.55-0.78,4.9-2.33,6.67-4.58c2.35-3.02,3.23-6.75,2.72-10.26
		L214.7,193.46L214.7,193.46z"/>
        <path class="st0" d="M228.36,177.05c-1.38,1.11-2.98,1.7-4.61,1.82c-2.6,0.18-5.24-0.86-7.01-3.04c-1.12-1.38-1.7-2.98-1.82-4.61
		c-0.18-2.61,0.86-5.24,3.05-7l-3.26-4.05c-3.57,2.86-5.28,7.18-4.99,11.41c0.18,2.66,1.17,5.31,2.97,7.53
		c2.88,3.54,7.19,5.25,11.42,4.95h0.01c2.66-0.19,5.29-1.17,7.52-2.97c2.97-2.41,4.67-5.85,4.96-9.39l-5.19-0.43
		C231.23,173.45,230.19,175.56,228.36,177.05"/>
        <path class="st0" d="M245.2,157.56c-1.59,0.77-3.28,0.99-4.9,0.74c-2.58-0.41-4.91-2.02-6.15-4.54c-0.78-1.59-0.99-3.28-0.73-4.91
		c0.41-2.58,2.02-4.91,4.54-6.13l-2.26-4.69c-4.12,1.99-6.76,5.81-7.43,10c-0.42,2.63-0.05,5.43,1.2,8.01
		c2.01,4.09,5.82,6.74,10.01,7.39h0.01c2.63,0.42,5.42,0.06,8-1.2c3.44-1.68,5.87-4.65,6.95-8.03l-4.96-1.59
		C248.8,154.7,247.32,156.51,245.2,157.56"/>
        <path class="st0" d="M266.13,141.42c-1.73,0.39-3.42,0.23-4.94-0.39c-2.42-0.98-4.33-3.07-4.97-5.8c-0.4-1.73-0.23-3.43,0.39-4.95
		c0.98-2.43,3.07-4.33,5.8-4.95l-1.15-5.07c-4.46,1.01-7.9,4.14-9.48,8.07c-1,2.47-1.27,5.28-0.63,8.07
		c1.04,4.44,4.16,7.87,8.09,9.46h0.01c2.47,1,5.27,1.27,8.06,0.63c3.73-0.87,6.76-3.21,8.58-6.26l-4.47-2.67
		C270.29,139.44,268.44,140.88,266.13,141.42"/>
        <path class="st0" d="M289.04,129.73c-1.77,0-3.38-0.55-4.73-1.49c-2.14-1.5-3.53-3.97-3.54-6.77c0-1.77,0.55-3.39,1.49-4.73
		c1.5-2.14,3.97-3.53,6.77-3.52l0.02-5.2c-4.57-0.02-8.62,2.26-11.06,5.73c-1.53,2.18-2.43,4.86-2.43,7.72
		c0.01,4.56,2.28,8.61,5.76,11.04l0,0.01c2.18,1.52,4.85,2.42,7.71,2.43c3.83-0.01,7.31-1.61,9.77-4.17l-3.76-3.6
		C293.54,128.74,291.41,129.73,289.04,129.73"/>
        <path class="st0" d="M312.68,121.6c-1.72-0.4-3.18-1.29-4.27-2.51c-1.75-1.94-2.55-4.66-1.92-7.39c0.4-1.73,1.3-3.18,2.52-4.28
		c1.95-1.75,4.66-2.55,7.39-1.91l1.19-5.06c-4.45-1.05-8.91,0.26-12.06,3.1c-1.98,1.78-3.46,4.19-4.1,6.98
		c-1.02,4.44,0.28,8.9,3.13,12.05l0,0.01c1.78,1.98,4.18,3.45,6.97,4.1c3.74,0.85,7.49,0.08,10.46-1.87l-2.85-4.36
		C317.28,121.64,314.99,122.13,312.68,121.6"/>
        <path class="st0" d="M489.72,227.55c-1.42-0.82-2.59-2.06-3.35-3.65c-1-2.15-1-4.5-0.21-6.54l-4.86-1.88
		c-1.28,3.31-1.26,7.14,0.35,10.62c1.21,2.59,3.16,4.63,5.46,5.97h0.01c3.67,2.12,8.29,2.47,12.43,0.55
		c2.59-1.21,4.64-3.16,5.97-5.46c2.12-3.67,2.48-8.31,0.52-12.45l-4.7,2.22c1.19,2.54,0.98,5.36-0.33,7.63
		c-0.82,1.42-2.05,2.6-3.66,3.35C494.81,229.08,491.98,228.86,489.72,227.55"/>
        <path class="st0" d="M478.05,199.79c-1.45-1.87-1.99-4.15-1.68-6.32l-5.15-0.74c-0.51,3.51,0.37,7.24,2.72,10.26
		c1.77,2.25,4.12,3.8,6.67,4.58l0.01,0.01c4.06,1.24,8.64,0.54,12.24-2.26c2.25-1.76,3.81-4.12,4.58-6.67
		c1.24-4.06,0.55-8.65-2.29-12.24l-4.09,3.22c1.73,2.2,2.16,5,1.4,7.5c-0.48,1.57-1.42,3-2.81,4.09c-2.21,1.72-5.01,2.15-7.52,1.38
		C480.57,202.11,479.15,201.18,478.05,199.79"/>
        <path class="st0" d="M459.66,171.27l-5.19,0.43c0.29,3.54,1.99,6.97,4.96,9.39c2.23,1.8,4.87,2.78,7.53,2.97h0.01
		c4.23,0.3,8.54-1.42,11.42-4.95c1.8-2.23,2.78-4.88,2.97-7.53c0.3-4.23-1.42-8.55-4.98-11.41l-3.26,4.05
		c2.18,1.75,3.23,4.39,3.05,7c-0.12,1.63-0.71,3.24-1.82,4.61c-1.77,2.18-4.4,3.22-7.01,3.04c-1.64-0.11-3.23-0.71-4.61-1.82
		C460.88,175.56,459.85,173.45,459.66,171.27"/>
        <path class="st0" d="M451.59,163.43h0.01c4.19-0.66,8-3.3,10.01-7.39c1.25-2.57,1.62-5.38,1.2-8.01c-0.67-4.19-3.3-8.02-7.43-10
		l-2.26,4.69c2.53,1.22,4.13,3.55,4.54,6.13c0.26,1.62,0.05,3.32-0.73,4.91c-1.23,2.52-3.57,4.13-6.14,4.54
		c-1.62,0.26-3.32,0.04-4.91-0.74c-2.13-1.04-3.61-2.86-4.28-4.95l-4.96,1.6c1.08,3.38,3.51,6.34,6.95,8.03
		C446.17,163.49,448.96,163.85,451.59,163.43"/>
        <path class="st0" d="M439.29,128.33c-1.59-3.93-5.02-7.06-9.48-8.07l-1.15,5.07c2.73,0.62,4.82,2.53,5.8,4.95
		c0.61,1.52,0.79,3.22,0.39,4.95c-0.64,2.73-2.55,4.83-4.97,5.81c-1.52,0.61-3.22,0.78-4.94,0.38c-2.31-0.54-4.16-1.97-5.28-3.85
		l-4.47,2.67c1.82,3.05,4.84,5.39,8.57,6.26c2.79,0.64,5.59,0.36,8.06-0.63l0.01-0.01c3.93-1.58,7.05-5.01,8.09-9.45
		C440.57,133.61,440.29,130.8,439.29,128.33"/>
        <path class="st0" d="M413.07,113.75c-2.43-3.47-6.48-5.75-11.06-5.73l0.02,5.2c2.8-0.01,5.27,1.38,6.77,3.52
		c0.94,1.34,1.49,2.96,1.49,4.73c-0.01,2.8-1.4,5.27-3.54,6.77c-1.35,0.94-2.96,1.48-4.73,1.49c-2.37-0.01-4.5-0.99-6.02-2.57
		l-3.76,3.6c2.46,2.57,5.93,4.16,9.77,4.17c2.86-0.01,5.53-0.91,7.71-2.43l0.01-0.01c3.48-2.43,5.75-6.48,5.76-11.04
		C415.51,118.61,414.6,115.93,413.07,113.75"/>
        <path class="st0" d="M385.56,103.54c-3.15-2.84-7.62-4.15-12.06-3.1l1.19,5.06c2.73-0.64,5.44,0.16,7.39,1.91
		c1.22,1.1,2.12,2.55,2.52,4.28c0.62,2.73-0.17,5.45-1.92,7.4c-1.09,1.22-2.55,2.11-4.27,2.51c-2.31,0.53-4.6,0.05-6.44-1.15
		l-2.85,4.36c2.97,1.95,6.72,2.72,10.46,1.87c2.79-0.65,5.19-2.12,6.97-4.1l0.01-0.01c2.84-3.15,4.14-7.6,3.13-12.05
		C389.02,107.73,387.54,105.32,385.56,103.54"/>
        <path class="st0" d="M345.54,0C155.01,0,0,155,0,345.54c0,190.53,155.01,345.54,345.54,345.54
		c190.53,0,345.54-155.01,345.54-345.54C691.08,155,536.07,0,345.54,0 M345.54,680.55c-184.73,0-335.01-150.29-335.01-335.01
		c0-184.73,150.28-335.01,335.01-335.01c184.72,0,335.01,150.28,335.01,335.01C680.55,530.26,530.26,680.55,345.54,680.55"/>
        <path class="st0" d="M189.86,368.48l-0.01-0.02l-13.32,23.06h0.02h26.61h0.02l-13.32-23.06L189.86,368.48L189.86,368.48z
		 M181.29,388.79l8.56-14.83l8.56,14.83H181.29L181.29,388.79z"/>
        <path class="st0" d="M189.86,418.41c0.06,0.01,0.12,0.02,0.19,0.02c6.42,0,11.64-5.22,11.64-11.64c0-6.42-5.22-11.64-11.64-11.64
		c-0.06,0-0.12,0-0.19,0.01c-0.06-0.01-0.12-0.01-0.19-0.01c-6.42,0-11.64,5.22-11.64,11.64c0,6.42,5.22,11.64,11.64,11.64
		C189.73,418.43,189.79,418.42,189.86,418.41 M181.14,406.79c0-4.84,3.89-8.78,8.71-8.88c4.82,0.1,8.71,4.04,8.71,8.88
		c0,4.84-3.89,8.78-8.71,8.88C185.04,415.57,181.14,411.63,181.14,406.79"/>
        <path class="st0" d="M286.95,68.02c6.1,0,11.9-3.42,15.03-6.19l-2.8-3.15c-0.47,0.41-11.57,10.03-19.91,1.91
		c-2.67-2.6-3.62-7.12-2.38-11.26c1.43-4.76,5.36-8.08,10.78-9.12c9.98-1.91,18.28,4.8,27.08,11.9c2.01,1.62,4.09,3.3,6.16,4.84
		c8.91,6.62,19.32,6.67,24.62,6.67c5.31,0,15.7-0.05,24.62-6.67c2.07-1.54,4.15-3.21,6.15-4.84c8.79-7.1,17.12-13.8,27.08-11.9
		c5.42,1.03,9.35,4.35,10.78,9.12c1.25,4.14,0.29,8.67-2.37,11.26c-8.34,8.11-19.45-1.5-19.91-1.91l-2.8,3.15
		c3.13,2.77,8.93,6.19,15.03,6.19c3.6,0,7.3-1.19,10.62-4.42c3.82-3.72,5.18-9.8,3.47-15.5c-1.9-6.32-7.01-10.7-14.03-12.04
		c-11.92-2.27-21.36,5.37-30.52,12.76c-1.97,1.6-4.02,3.25-6.02,4.73c-4.34,3.22-9.35,4.67-13.67,5.31
		c4.3-3.34,6.99-8.12,7.43-13.66c0.5-6.34-2.25-12.15-7-14.8c-4.78-2.66-9.43-3.31-13.83-1.92c-7.9,2.48-11.96,10.64-12.13,10.98
		l3.79,1.85c0.03-0.07,3.41-6.87,9.6-8.81c3.26-1.02,6.8-0.49,10.52,1.58c3.32,1.85,5.22,6.09,4.86,10.79
		c-0.48,6.09-4.45,11.08-10.62,13.34c-1.49,0.55-2.72,0.99-4.6,1.09c-4.92-0.13-12.4-1.18-18.56-5.75c-2-1.48-4.04-3.13-6.02-4.73
		c-9.15-7.39-18.62-15.02-30.51-12.76c-7.02,1.34-12.13,5.72-14.03,12.04c-1.71,5.7-0.35,11.78,3.48,15.5
		C279.65,66.83,283.35,68.02,286.95,68.02"/>
        <path class="st0" d="M144.84,537.53c-0.83-2.39-3.45-3.65-5.84-2.84c-2.38,0.84-3.67,3.46-2.84,5.84c0.82,2.33,3.45,3.67,5.84,2.86
		C144.38,542.55,145.64,539.86,144.84,537.53"/>
        <path class="st0" d="M113.2,561.39c-2.38,0.84-3.67,3.46-2.84,5.84c0.81,2.32,3.45,3.67,5.84,2.86c2.38-0.82,3.65-3.52,2.84-5.85
		C118.22,561.85,115.59,560.59,113.2,561.39"/>
        <path class="st0" d="M133.6,565.7c-2.42-0.46-4.91,1.15-5.4,3.63c-0.48,2.47,1.22,4.92,3.65,5.39c2.48,0.48,4.88-1.17,5.38-3.64
		C137.7,568.61,136.07,566.17,133.6,565.7"/>
        <path class="st0" d="M117.97,533.64c-0.48,2.48,1.22,4.92,3.65,5.39c2.48,0.48,4.88-1.17,5.38-3.64c0.47-2.48-1.16-4.91-3.63-5.38
		C120.94,529.55,118.46,531.17,117.97,533.64"/>
        <path class="st0" d="M112.62,544.41c-1.9-1.65-4.87-1.4-6.49,0.47c-1.65,1.91-1.43,4.81,0.46,6.48c1.92,1.64,4.83,1.45,6.48-0.46
		C114.67,549.03,114.52,546.08,112.62,544.41"/>
        <path class="st0" d="M142.16,553.86c-1.65,1.91-1.43,4.81,0.46,6.48c1.91,1.64,4.83,1.45,6.47-0.46c1.61-1.87,1.45-4.82-0.45-6.49
		C146.74,551.74,143.78,551.99,142.16,553.86"/>
        <path class="st0" d="M118.94,543.72c-4.74,4.75-4.73,12.47,0.02,17.21c4.75,4.74,12.47,4.73,17.2-0.02
		c4.74-4.75,4.73-12.47-0.02-17.21C131.39,538.97,123.68,538.97,118.94,543.72 M134.22,558.98c-3.67,3.67-9.65,3.68-13.33,0.01
		c-3.68-3.67-3.68-9.65-0.01-13.33c3.67-3.68,9.65-3.69,13.33-0.02C137.89,549.32,137.89,555.3,134.22,558.98"/>
        <path class="st0" d="M182.97,573.13c-2.16,1.29-2.9,4.13-1.62,6.29c1.26,2.11,4.12,2.91,6.3,1.63c2.17-1.28,2.87-4.17,1.61-6.3
		C187.97,572.58,185.15,571.86,182.97,573.13"/>
        <path class="st0" d="M163.05,604.47c-2.16,1.29-2.9,4.12-1.62,6.28c1.26,2.11,4.12,2.91,6.3,1.63c2.17-1.28,2.87-4.18,1.61-6.3
		C168.05,603.91,165.23,603.2,163.05,604.47"/>
        <path class="st0" d="M183.89,604.61c-2.46,0.04-4.57,2.11-4.56,4.64c0.02,2.52,2.18,4.57,4.65,4.54c2.53-0.03,4.55-2.12,4.54-4.65
		C188.49,606.63,186.41,604.57,183.89,604.61"/>
        <path class="st0" d="M162.16,576.33c0.03,2.52,2.18,4.57,4.65,4.55c2.53-0.03,4.55-2.12,4.55-4.65c-0.04-2.52-2.12-4.57-4.64-4.54
		C164.26,571.73,162.14,573.8,162.16,576.33"/>
        <path class="st0" d="M159.07,587.94c-2.19-1.24-5.05-0.39-6.26,1.75c-1.24,2.21-0.44,5,1.75,6.26c2.2,1.23,5.02,0.46,6.25-1.74
		C162.01,592.06,161.27,589.2,159.07,587.94"/>
        <path class="st0" d="M196.17,589.53c-2.19-1.24-5.05-0.39-6.26,1.75c-1.24,2.2-0.44,5,1.75,6.26c2.2,1.23,5.02,0.46,6.25-1.74
		C199.11,593.65,198.37,590.78,196.17,589.53"/>
        <path class="st0" d="M185.44,599.4c3.69-5.6,2.14-13.16-3.46-16.85c-5.6-3.69-13.16-2.14-16.85,3.46
		c-3.69,5.6-2.14,13.16,3.46,16.85C174.19,606.55,181.75,605,185.44,599.4 M170.1,600.57c-4.34-2.86-5.54-8.72-2.68-13.06
		c2.86-4.34,8.72-5.55,13.06-2.68c4.34,2.86,5.54,8.72,2.68,13.06C180.29,602.23,174.44,603.44,170.1,600.57"/>
        <path class="st0" d="M554.92,540.52c0.83-2.37-0.46-5-2.84-5.84c-2.39-0.8-5.01,0.46-5.84,2.84c-0.8,2.33,0.46,5.03,2.84,5.85
		C551.47,544.19,554.11,542.85,554.92,540.52"/>
        <path class="st0" d="M577.87,561.39c-2.39-0.8-5.01,0.46-5.84,2.84c-0.8,2.33,0.46,5.03,2.84,5.85c2.39,0.81,5.02-0.54,5.84-2.86
		C581.54,564.86,580.26,562.23,577.87,561.39"/>
        <path class="st0" d="M557.47,565.7c-2.47,0.47-4.1,2.9-3.63,5.38c0.5,2.47,2.9,4.12,5.38,3.64c2.42-0.47,4.13-2.92,3.65-5.39
		C562.38,566.86,559.89,565.25,557.47,565.7"/>
        <path class="st0" d="M564.08,535.39c0.5,2.47,2.91,4.12,5.38,3.64c2.42-0.47,4.13-2.91,3.65-5.38c-0.49-2.48-2.97-4.09-5.4-3.63
		C565.24,530.48,563.61,532.91,564.08,535.39"/>
        <path class="st0" d="M578.46,544.41c-1.9,1.67-2.06,4.62-0.45,6.49c1.64,1.9,4.56,2.1,6.48,0.46c1.89-1.67,2.11-4.57,0.46-6.48
		C583.33,543.01,580.36,542.76,578.46,544.41"/>
        <path class="st0" d="M542.43,553.39c-1.9,1.67-2.05,4.63-0.45,6.49c1.64,1.91,4.56,2.1,6.48,0.46c1.89-1.67,2.11-4.57,0.46-6.48
		C547.3,551.99,544.34,551.74,542.43,553.39"/>
        <path class="st0" d="M572.14,543.72c-4.74-4.75-12.45-4.75-17.2-0.02c-4.75,4.74-4.76,12.46-0.02,17.21
		c4.74,4.75,12.46,4.75,17.21,0.02C576.87,556.19,576.88,548.47,572.14,543.72 M556.85,558.98c-3.67-3.68-3.67-9.66,0.02-13.33
		c3.68-3.67,9.65-3.66,13.33,0.02c3.67,3.68,3.67,9.66-0.01,13.33C566.51,562.66,560.53,562.65,556.85,558.98"/>
        <path class="st0" d="M501.82,574.75c-1.26,2.12-0.56,5.02,1.61,6.3c2.18,1.28,5.03,0.49,6.3-1.63c1.29-2.16,0.55-4.99-1.62-6.29
		C505.92,571.86,503.1,572.58,501.82,574.75"/>
        <path class="st0" d="M528.03,604.47c-2.18-1.27-5.01-0.56-6.29,1.61c-1.26,2.12-0.56,5.02,1.61,6.3c2.18,1.27,5.03,0.48,6.3-1.63
		C530.94,608.59,530.19,605.76,528.03,604.47"/>
        <path class="st0" d="M507.18,604.61c-2.52-0.04-4.59,2.02-4.64,4.54c-0.01,2.53,2.02,4.62,4.54,4.65c2.47,0.03,4.62-2.03,4.65-4.54
		C511.76,606.72,509.64,604.64,507.18,604.61"/>
        <path class="st0" d="M519.72,576.23c-0.01,2.52,2.02,4.61,4.54,4.65c2.47,0.02,4.63-2.03,4.65-4.55c0.02-2.53-2.1-4.6-4.56-4.64
		C521.84,571.65,519.76,573.71,519.72,576.23"/>
        <path class="st0" d="M532,587.94c-2.19,1.25-2.93,4.12-1.73,6.27c1.23,2.19,4.05,2.97,6.25,1.74c2.19-1.25,2.99-4.05,1.75-6.26
		C537.05,587.56,534.19,586.71,532,587.94"/>
        <path class="st0" d="M494.91,589.53c-2.2,1.25-2.94,4.12-1.74,6.27c1.23,2.2,4.05,2.97,6.25,1.74c2.19-1.25,2.99-4.05,1.75-6.26
		C499.96,589.14,497.1,588.29,494.91,589.53"/>
        <path class="st0" d="M525.95,586.01c-3.69-5.6-11.25-7.15-16.85-3.46c-5.6,3.69-7.15,11.25-3.46,16.85
		c3.69,5.6,11.25,7.15,16.85,3.46C528.09,599.16,529.64,591.61,525.95,586.01 M520.98,600.57c-4.34,2.87-10.2,1.66-13.06-2.68
		c-2.86-4.34-1.66-10.2,2.68-13.06c4.34-2.87,10.2-1.66,13.06,2.68C526.52,591.85,525.32,597.71,520.98,600.57"/>
        <path class="st0" d="M142.1,314.81l-1.63,0.8c-1.36,0.67-7.01,3.52-13.25,7.56c-0.53-2.63-1.63-6.64-3.88-10.62
		c-1.82-3.23-5.78-7.88-7.67-10.03c1.43-2.36,4.87-7.64,9.83-12.6c6.82-6.82,14.9-11.61,14.98-11.65l-2.14-3.63
		c-0.35,0.2-8.61,5.09-15.83,12.31c-7.06,7.06-11.12,14.52-11.29,14.84l-0.71,1.31l1.01,1.11c0.06,0.07,6,6.59,8.15,10.41
		c2.59,4.61,3.47,9.35,3.72,11.15c-8.01,5.67-15.78,12.93-15.78,19.79c0,6.86,7.76,14.12,15.78,19.79
		c-0.25,1.8-1.12,6.51-3.73,11.15c-2.14,3.81-8.09,10.34-8.15,10.41l-1.01,1.1l0.71,1.31c0.17,0.32,4.23,7.78,11.29,14.84
		c7.22,7.22,15.48,12.1,15.83,12.31l2.13-3.64c-0.08-0.04-8.14-4.81-14.98-11.65c-4.96-4.96-8.4-10.24-9.83-12.6
		c1.89-2.15,5.86-6.8,7.67-10.03c2.25-3.99,3.35-7.99,3.88-10.62c6.24,4.04,11.89,6.88,13.25,7.55l1.63,0.81l1.03-1.5
		c0.37-0.54,9.04-13.34,9.04-29.31c0-15.96-8.68-28.65-9.05-29.18L142.1,314.81L142.1,314.81z M132.8,335.52l12.66-4.61
		c1.22,3.66,2.21,7.93,2.44,12.52H133.7v4.22h14.2c-0.25,4.57-1.25,8.84-2.48,12.51l-12.63-4.6l-1.44,3.96l12.6,4.58
		c-1.24,2.98-2.5,5.31-3.33,6.73c-9.4-4.88-28.8-16.72-28.8-25.29c0-8.56,19.42-20.42,28.81-25.29c0.84,1.41,2.1,3.74,3.35,6.72
		l-12.63,4.59L132.8,335.52L132.8,335.52z"/>
        <path class="st0" d="M571.41,376.48c-2.59-4.61-3.47-9.35-3.72-11.15c8.02-5.67,15.78-12.93,15.78-19.79
		c0-6.86-7.76-14.12-15.78-19.79c0.25-1.79,1.12-6.51,3.72-11.15c2.14-3.81,8.09-10.34,8.14-10.41l1.01-1.11l-0.71-1.31
		c-0.17-0.31-4.23-7.78-11.29-14.84c-7.22-7.21-15.48-12.1-15.83-12.3l-2.13,3.63c0.08,0.05,8.14,4.81,14.99,11.65
		c4.96,4.96,8.4,10.24,9.82,12.6c-1.89,2.14-5.85,6.79-7.67,10.02c-2.25,4-3.35,8-3.88,10.63c-6.24-4.04-11.89-6.89-13.25-7.56
		l-1.63-0.8l-1.03,1.49c-0.37,0.53-9.05,13.21-9.05,29.18c0,15.96,8.67,28.77,9.04,29.31l1.03,1.5l1.63-0.8
		c1.36-0.67,7.01-3.51,13.25-7.56c0.54,2.63,1.64,6.64,3.88,10.63c1.82,3.23,5.78,7.88,7.67,10.02c-1.43,2.36-4.87,7.64-9.82,12.6
		c-6.83,6.82-14.9,11.6-14.99,11.65l2.13,3.63c0.35-0.2,8.61-5.09,15.83-12.31c7.07-7.07,11.12-14.53,11.29-14.84l0.71-1.31
		l-1.01-1.1C579.5,386.82,573.56,380.29,571.41,376.48 M550.45,370.83c-0.83-1.42-2.09-3.76-3.33-6.73l12.59-4.58l-1.44-3.96
		l-12.63,4.6c-1.22-3.67-2.23-7.94-2.48-12.51h14.2v-4.21h-14.21c0.24-4.59,1.23-8.86,2.46-12.52l12.65,4.61l1.44-3.96l-12.62-4.59
		c1.25-2.98,2.51-5.31,3.35-6.72c9.39,4.88,28.81,16.73,28.81,25.29C579.25,354.11,559.85,365.95,550.45,370.83"/>
        <polygon class="st0" points="502.55,330.39 499.92,330.39 499.92,364.03 502.55,364.03 502.55,330.39 	"/>
        <polygon class="st0" points="499.92,483.18 502.55,483.18 502.55,449.54 499.92,449.54 499.92,483.18 	"/>
        <path class="st0" d="M487.91,391.53h26.63l-13.32-23.06L487.91,391.53L487.91,391.53z M492.66,388.79l8.57-14.85l8.57,14.85H492.66
		L492.66,388.79z"/>
        <path class="st0" d="M501.23,445.11l13.32-23.07h-26.63L501.23,445.11L501.23,445.11z M501.23,439.63l-8.57-14.85h17.15
		L501.23,439.63L501.23,439.63z"/>
        <path class="st0" d="M513.07,406.79c0-6.42-5.22-11.64-11.63-11.64s-11.64,5.22-11.64,11.64c0,6.42,5.22,11.64,11.64,11.64
		S513.07,413.2,513.07,406.79 M492.53,406.79c0-4.91,4-8.9,8.9-8.9s8.9,3.99,8.9,8.9c0,4.91-3.99,8.9-8.9,8.9
		S492.53,411.69,492.53,406.79"/>
        <polygon class="st0" points="191.16,364.03 191.18,364.03 191.18,336.71 191.16,336.71 191.16,330.39 188.53,330.39 188.53,364.03 
		188.55,364.03 191.16,364.03 	"/>
        <polygon class="st0" points="188.55,449.54 188.53,449.54 188.53,483.18 191.16,483.18 191.16,476.86 191.18,476.86 191.18,449.54 
		191.16,449.54 188.55,449.54 	"/>
        <path class="st0" d="M176.55,422.04h-0.02l13.32,23.06l0.01-0.02l0.01,0.02l13.32-23.06h-0.02H176.55L176.55,422.04z
		 M189.86,439.61l-8.56-14.83h17.12L189.86,439.61L189.86,439.61z"/>
        <path class="st0" d="M464.08,620.76c-3.62-0.67-7.33-0.82-10.26-1.52c-2.98-0.72-4.91-1.77-5.87-4.09
		c-0.26-0.65-0.38-1.3-0.38-1.93c0.01-2.14,1.43-4.38,5.12-5.91c1.63-0.67,3-0.92,4.17-0.92c3.86-0.01,5.99,2.85,7.53,5.01
		l0.68,0.96l4.21-1.72l-5.43-12.15l-1.07,0.14c-2.25,0.28-6.74,0.8-11.68,2.8c-3.73,1.51-6.91,3.36-9.22,5.72
		c-2.31,2.33-3.74,5.27-3.72,8.58c0,1.76,0.38,3.59,1.15,5.51c1.83,4.59,5.6,6.71,9.63,7.83c3.26,0.9,7.56,0.95,11.3,1.55
		c1.85,0.28,3.56,0.7,4.81,1.32c1.28,0.63,2.08,1.38,2.51,2.42c0.2,0.49,0.29,0.98,0.29,1.46c0.01,1.75-1.29,3.83-4.77,5.27
		c-1.37,0.55-2.52,0.76-3.49,0.76c-3.02,0-4.81-2.07-6.11-4.24l-0.64-1.1l-4.34,1.76l0.63,1.39l4.6,10.22l1.16-0.24
		c1.91-0.4,6.26-1.24,10.46-2.94c7.09-2.84,11.37-7.39,11.38-12.99c0-1.53-0.33-3.11-0.96-4.66
		C473.56,623.61,468.76,621.66,464.08,620.76"/>
        <path class="st0" d="M536.71,126.57l0.61-0.99l-3.22-3.24l-9.06,9.72l0.55,0.95c1.15,1.97,3.36,5.92,7.13,9.69
		c4.01,4.01,8.25,6.78,12.72,7.2l0.05,0.01c3.5,0.31,7.02-1.02,10.06-4.08c2.3-2.28,3.35-4.97,3.58-7.69
		c0.13-1.41,0.05-2.82-0.13-4.24c-0.33-2.59-1.37-5.51-2.24-8.41c-0.88-2.88-1.57-5.74-1.37-7.84c0.12-1.28,0.49-2.22,1.24-2.97
		c0.86-0.85,1.89-1.22,3.15-1.12c1.36,0.11,3.05,0.88,4.79,2.64c2.19,2.22,2.64,4.03,2.51,5.68c-0.14,1.63-1,3.22-1.98,4.53
		l-0.76,1.02l3.29,3.3l1.04-1.13l7.64-8.24l-0.7-0.98c-1.13-1.57-3.6-5.26-6.76-8.47c-3.71-3.7-7.52-5.86-11.29-6.2
		c-3.32-0.31-6.51,0.93-9.06,3.5c-2.3,2.29-3.36,5-3.58,7.7c-0.18,2.1,0.09,4.2,0.52,6.27c1.14,5.01,3.16,9.87,2.8,13.3
		c-0.14,1.47-0.6,2.63-1.68,3.73c-1.13,1.11-2.45,1.6-3.98,1.47c-1.52-0.13-3.3-0.94-5.11-2.75c-2.65-2.69-3.16-4.9-3.01-6.87
		C534.67,129.95,535.8,128.03,536.71,126.57"/>
        <path class="st0" d="M53.96,472.92c0.03-0.51,0.07-0.61,0.52-1.05c0.47-0.43,1.46-0.95,2.97-1.56l25.78-10.4
		c1.64-0.68,2.77-0.97,3.37-0.96c0.53,0.03,0.64,0.07,1.02,0.45c0.36,0.38,0.83,1.23,1.35,2.52l0.55,1.36l4.24-1.68l-0.56-1.37
		l-7.34-18.19l-4.21,1.74l0.54,1.36c0.55,1.34,0.79,2.27,0.77,2.79c-0.04,0.51-0.07,0.63-0.53,1.08c-0.47,0.41-1.45,0.95-2.96,1.56
		l-25.79,10.4c-1.61,0.66-2.73,0.94-3.34,0.94c-0.55-0.04-0.67-0.09-1.05-0.45c-0.36-0.39-0.83-1.21-1.35-2.5l-0.54-1.36l-4.22,1.67
		l7.89,19.57l4.21-1.78l-0.54-1.34C54.18,474.39,53.95,473.44,53.96,472.92"/>
        <path class="st0" d="M110.49,490.55l-0.54-0.88l-3.44-5.68l-38.94,7.23c-1.16,0.23-2.06,0.33-2.75,0.33
		c-0.95-0.02-1.42-0.17-1.98-0.56c-0.55-0.4-1.2-1.19-2-2.51l-0.76-1.26l-3.9,2.34L66,505.89l3.89-2.39l-0.76-1.25
		c-1.09-1.77-1.47-2.97-1.44-3.35c0.05-0.29-0.07-0.12,0.25-0.37c0.27-0.2,1-0.43,2.68-0.74L96.05,493L79.7,512.71
		c-1.13,1.36-1.62,1.77-2.01,2.02c-0.23,0.13-0.34,0.14-0.38,0.14c-0.04,0-0.18,0-0.58-0.37c-0.37-0.36-0.87-1.03-1.44-1.97
		l-0.76-1.26l-3.91,2.35l10.98,18.26l3.9-2.38l-0.75-1.26c-1.02-1.67-1.38-2.67-1.36-3.33c-0.05-0.87,0.66-2.11,2.75-4.59
		L110.49,490.55L110.49,490.55z"/>
        <path class="st0" d="M41.02,439.03c0.04-0.81,0.11-0.92,0.54-1.29c0.46-0.37,1.55-0.81,3.31-1.23l26.99-6.73
		c1.32-0.33,2.32-0.5,2.97-0.49c0.86,0.03,1,0.14,1.33,0.48c0.32,0.38,0.73,1.29,1.09,2.81l0.35,1.41l4.43-1.07l-0.36-1.44
		l-7.96-31.92l-12.09,2.49l1.17,4.68l1.38-0.28c0.65-0.13,1.26-0.2,1.77-0.2c1.18,0.01,1.93,0.28,2.64,0.94
		c0.71,0.68,1.4,1.9,1.9,3.96l1.45,5.77c0.23,0.89,0.33,1.52,0.33,1.84c-0.07,0.4,0.07,0.13-0.19,0.38c-0.3,0.21-1.2,0.55-2.66,0.92
		l-11.56,2.85l-1.69-6.78c-0.21-0.87-0.31-1.52-0.31-1.99c0.04-0.81,0.13-0.9,0.47-1.2c0.37-0.31,1.28-0.67,2.68-0.99l1.44-0.34
		l-1.14-4.57l-15.84,3.93l1.1,4.56l1.43-0.36c1.16-0.29,2.04-0.44,2.56-0.43c0.67,0.04,0.67,0.07,0.92,0.34
		c0.25,0.28,0.61,1.09,0.93,2.46l1.69,6.79l-9.68,2.43c-0.95,0.24-1.68,0.35-2.15,0.35c-0.59-0.03-0.66-0.1-0.83-0.24
		c-0.17-0.16-0.46-0.69-0.7-1.68l-0.99-4.01c-0.36-1.46-0.52-2.64-0.52-3.55c0.02-1.62,0.41-2.34,0.97-2.91
		c0.57-0.58,1.54-1.02,2.78-1.43l1.3-0.42l-1.16-4.64l-11.84,3.47l8.05,32.34l4.44-1.12l-0.36-1.43
		C41.15,440.41,41.01,439.58,41.02,439.03"/>
        <path class="st0" d="M121.42,119.02c1.54-1.4,2.46-1.83,2.85-1.79c0.25,0,0.54,0.07,1.08,0.46c0.54,0.37,1.24,1.05,2.11,2.01
		l18.61,20.67c1.65,1.8,2.18,2.91,2.14,3.33c0.05,0.39-0.39,1.24-2.09,2.74l-1.11,0.99l3.08,3.37l1.08-0.98l14.54-13.08l-3.05-3.41
		l-1.09,0.99c-1.52,1.39-2.45,1.82-2.84,1.78c-0.24,0-0.54-0.08-1.09-0.46c-0.54-0.37-1.24-1.04-2.09-2.01l-18.61-20.66
		c-1.65-1.79-2.18-2.9-2.12-3.33c-0.06-0.4,0.4-1.25,2.08-2.74l1.09-0.98l-3.05-3.4L117.3,116.6l3.02,3.41L121.42,119.02
		L121.42,119.02z"/>
        <path class="st0" d="M29.57,389.07c-0.03-0.39-0.05-0.76-0.06-1.08c-0.03-1.68,0.22-2.16,0.53-2.41c0.34-0.33,1.52-0.71,3.73-0.84
		l27.75-2.18c0.47-0.03,0.9-0.06,1.29-0.07c1.83-0.04,2.5,0.25,2.75,0.54c0.31,0.27,0.66,1.24,0.8,3.21l0.12,1.49l4.55-0.39
		l-0.11-1.46l-1.27-16.48l-4.56,0.36l0.12,1.47c0.03,0.42,0.05,0.79,0.06,1.13c0.03,1.66-0.22,2.12-0.54,2.37
		c-0.34,0.33-1.53,0.69-3.74,0.84l-23.61,1.82l31.21-21.54l-0.64-8.43l-36.81,2.83c-0.51,0.04-0.97,0.08-1.39,0.09
		c-1.81,0.05-2.46-0.25-2.68-0.51c-0.29-0.25-0.65-1.23-0.78-3.24l-0.12-1.48l-4.54,0.39l1.39,17.9l4.54-0.29l-0.11-1.48
		c-0.04-0.4-0.06-0.76-0.06-1.08c-0.03-1.68,0.23-2.17,0.55-2.43c0.34-0.33,1.52-0.7,3.74-0.85l21.8-1.7l-29.49,20.38l1.15,14.92
		l4.56-0.31L29.57,389.07L29.57,389.07z"/>
        <path class="st0" d="M166.69,104.89c0.42,0,0.82-0.01,1.23-0.02c3.66-0.15,7.3-0.83,10.31-0.82c3.08,0.02,5.19,0.61,6.64,2.66
		c0.64,0.92,0.93,1.88,0.94,2.87c0,1.82-1.05,3.93-3.77,5.84c-2.19,1.54-3.98,2.02-5.5,2.02c-2.87,0.02-5.15-1.89-6.8-3.37
		l-0.87-0.77l-3.74,2.61l8.01,10.6l1.02-0.38c2.14-0.79,6.4-2.3,10.76-5.35c5.67-3.98,9.65-8.69,9.69-14.27
		c0.01-2.53-0.87-5.13-2.66-7.67c-2.82-4.08-6.97-5.31-11.16-5.48c-0.25-0.01-0.49-0.01-0.74-0.01c-3.85,0.01-8.68,1.15-12.59,1.13
		c-2.91,0-4.97-0.61-6-2.1c-0.48-0.7-0.71-1.42-0.71-2.2c0-1.55,0.97-3.52,3.58-5.35c1.83-1.28,3.32-1.69,4.58-1.7
		c2.23-0.01,4.1,1.39,5.56,2.93l0.87,0.93l3.84-2.69l-0.93-1.22l-6.79-8.92l-1.08,0.5c-1.75,0.83-5.82,2.63-9.52,5.21
		c-5.36,3.75-8.42,8.15-8.45,12.85c0,2.32,0.79,4.61,2.27,6.71C157.72,103.82,162.32,104.92,166.69,104.89"/>
        <path class="st0" d="M92.67,163.61c2.43,1.99,5.14,2.78,7.77,2.76c2.21,0,4.36-0.51,6.44-1.19c4.92-1.66,9.62-4.23,13.08-4.17
		c1.42,0.01,2.58,0.34,3.74,1.27c1.25,1.03,1.87,2.31,1.88,3.87c0,1.5-0.63,3.33-2.21,5.28c-2.46,2.98-4.63,3.69-6.66,3.72
		c-2.05,0.01-4.03-0.89-5.54-1.63l-1.05-0.52l-2.88,3.54l10.62,8l0.88-0.64c1.84-1.34,5.54-3.96,8.88-8.09
		c3.51-4.35,5.8-8.78,5.82-13.2c0.02-3.61-1.67-7.07-5.12-9.84c-2.43-1.99-5.12-2.77-7.76-2.75c-1.49,0-2.97,0.23-4.45,0.57
		c-2.56,0.61-5.38,1.97-8.2,3.15c-2.8,1.19-5.59,2.17-7.7,2.15c-1.22-0.01-2.15-0.28-2.96-0.92c-0.96-0.79-1.44-1.79-1.46-3.1
		c0-1.35,0.6-3.08,2.12-4.95c2.03-2.46,3.81-3.08,5.5-3.11c1.6-0.01,3.23,0.69,4.59,1.49l1.1,0.65l2.95-3.62l-1.23-0.92l-8.99-6.72
		l-0.9,0.79c-1.45,1.27-4.86,4.13-7.71,7.63c-3.24,4-4.98,7.94-4.99,11.66C88.21,158.2,89.79,161.31,92.67,163.61"/>
        <path class="st0" d="M27.19,325.62c0.23-1.71,0.58-2.69,0.87-3.02c0.27-0.31,0.56-0.51,1.8-0.53c0.61,0,1.41,0.07,2.39,0.21
		l27.55,3.88c1.96,0.26,3.12,0.63,3.54,0.98c0.37,0.31,0.53,0.51,0.56,1.69c0,0.5-0.05,1.15-0.16,1.93l-0.2,1.43l4.51,0.71
		l0.21-1.48l2.29-16.35l-4.51-0.7l-0.21,1.47c-0.23,1.74-0.58,2.73-0.88,3.06c-0.26,0.3-0.52,0.49-1.74,0.52
		c-0.62,0-1.43-0.08-2.44-0.22l-23.47-3.29l35.14-14.33l1.17-8.36l-36.55-5.15c-1.99-0.26-3.15-0.62-3.57-0.95
		c-0.36-0.31-0.51-0.47-0.55-1.67c0-0.52,0.06-1.19,0.17-2.02l0.21-1.46l-4.52-0.62l-2.52,17.82l4.52,0.62l0.21-1.45
		c0.23-1.71,0.58-2.69,0.88-3.01c0.27-0.3,0.55-0.51,1.81-0.53c0.61,0,1.4,0.07,2.36,0.2l21.68,3.04l-33.2,13.55l-2.08,14.86
		l4.49,0.62L27.19,325.62L27.19,325.62z"/>
        <path class="st0" d="M37.66,263.46c0.44-1.4,0.87-2.28,1.22-2.66c0.36-0.36,0.47-0.43,1.15-0.47c0.65-0.01,1.71,0.22,3.2,0.71
		l26.45,8.59c1.62,0.52,2.66,1.01,3.13,1.41c0.45,0.41,0.49,0.51,0.54,1.15c0.01,0.54-0.19,1.44-0.58,2.67l-0.45,1.38l4.34,1.47
		l0.46-1.42L87.27,245l-11.57-4.32l-1.5,4.59l1.33,0.5c1.27,0.48,2.15,1.03,2.66,1.65c0.52,0.62,0.8,1.32,0.82,2.48
		c0,0.83-0.18,1.9-0.6,3.21l-1.84,5.64c-0.32,1.02-0.61,1.67-0.76,1.86c-0.18,0.15,0.05,0.07-0.32,0.12
		c-0.38,0.01-1.31-0.19-2.7-0.65l-11.32-3.7l2.15-6.64c0.39-1.23,0.81-1.95,1.11-2.27c0.31-0.29,0.42-0.34,0.95-0.37
		c0.52,0,1.39,0.18,2.56,0.58l1.39,0.46l1.48-4.45l-15.56-5.08l-1.43,4.47l1.39,0.46c1.37,0.44,2.26,0.84,2.62,1.15
		c0.35,0.32,0.35,0.3,0.38,0.83c0.01,0.45-0.15,1.25-0.53,2.38l-2.16,6.64l-9.48-3.07c-1.21-0.38-1.98-0.76-2.3-1.03
		c-0.29-0.29-0.28-0.27-0.32-0.71c0-0.31,0.08-0.82,0.32-1.53l1.29-3.93c0.77-2.4,1.62-3.76,2.37-4.46
		c0.75-0.68,1.35-0.85,2.26-0.87c0.65-0.01,1.43,0.14,2.29,0.35l1.33,0.33l1.45-4.56l-11.85-3.33l-10.32,31.7l4.35,1.42
		L37.66,263.46L37.66,263.46z"/>
        <path class="st0" d="M55.85,212.54c0.61-1.12,1.14-1.86,1.54-2.24c0.42-0.37,0.58-0.41,0.96-0.43c0.54-0.03,1.69,0.36,3.43,1.35
		l24.33,13.47c1.31,0.73,2.19,1.33,2.63,1.8c0.45,0.49,0.5,0.68,0.52,1.04c0.02,0.47-0.3,1.45-1.12,2.91l-0.71,1.28l3.99,2.21
		l0.71-1.29l8-14.46l-3.97-2.23l-0.72,1.28c-0.62,1.14-1.15,1.89-1.55,2.26c-0.42,0.37-0.57,0.41-0.94,0.43
		c-0.52,0.03-1.68-0.37-3.44-1.36l-20.69-11.48l37.91-0.79l4.12-7.41l-32.3-17.89c-1.31-0.73-2.2-1.32-2.66-1.79
		c-0.46-0.48-0.49-0.64-0.51-0.99c-0.02-0.45,0.3-1.44,1.15-2.93l0.72-1.28l-3.98-2.21l-8.75,15.74l3.99,2.18l0.71-1.27
		c0.62-1.11,1.16-1.86,1.56-2.22c0.42-0.37,0.58-0.42,0.96-0.45c0.54-0.02,1.68,0.36,3.42,1.35l19.16,10.63l-35.87,0.76l-7.28,13.1
		l3.99,2.22L55.85,212.54L55.85,212.54z"/>
        <path class="st0" d="M259.71,608.65l-1.41,4.34l1.41,0.46c1.38,0.43,2.26,0.85,2.65,1.19c0.37,0.36,0.44,0.47,0.49,1.12
		c0.02,0.63-0.2,1.72-0.69,3.25l-8.5,26.48c-0.5,1.62-0.98,2.64-1.37,3.11c-0.41,0.46-0.52,0.51-1.14,0.56
		c-0.54,0.02-1.46-0.16-2.71-0.55l-1.39-0.43l-1.39,4.3l20.05,6.44l1.37-4.34l-1.39-0.45c-1.38-0.45-2.27-0.86-2.67-1.22
		c-0.37-0.35-0.43-0.44-0.48-1.07c-0.03-0.63,0.2-1.73,0.7-3.29l8.5-26.48c0.51-1.6,0.98-2.65,1.37-3.12
		c0.41-0.46,0.5-0.51,1.12-0.56c0.53-0.03,1.45,0.16,2.74,0.57l1.39,0.45l1.39-4.34l-1.4-0.45L259.71,608.65L259.71,608.65z"/>
        <path class="st0" d="M225.98,595.67l-1.84,4.18l1.34,0.59c1.24,0.55,2.04,1.02,2.43,1.4c0.38,0.39,0.42,0.51,0.45,1
		c0.01,0.59-0.3,1.72-1.04,3.37l-11.33,25.42c-0.64,1.45-1.19,2.39-1.62,2.85c-0.45,0.45-0.59,0.5-1.06,0.52
		c-0.5,0.01-1.46-0.25-2.83-0.88l-1.35-0.61l-1.86,4.19l19.23,8.56l1.85-4.19l-1.34-0.59c-1.25-0.55-2.07-1.03-2.46-1.4
		c-0.37-0.39-0.41-0.51-0.44-0.98c-0.01-0.58,0.31-1.72,1.07-3.39l11.32-25.42c0.64-1.45,1.19-2.4,1.62-2.87
		c0.45-0.47,0.58-0.5,1.03-0.52c0.5-0.01,1.46,0.25,2.85,0.89l1.35,0.61l1.86-4.19l-1.34-0.6L225.98,595.67L225.98,595.67z"/>
        <path class="st0" d="M312.01,620.91c-2.53-0.34-4.94-0.55-7.24-0.49c-4.55,0.1-8.74,1.29-11.94,4.55c-3.2,3.24-5.29,8.31-6.3,15.89
		c-0.32,2.46-0.45,4.69-0.4,6.71c0.14,6.55,2.33,11.14,5.97,14.05c3.64,2.92,8.45,4.17,13.84,4.89L324,668.9l0.61-4.49l-1.46-0.2
		c-1.69-0.21-2.68-0.54-3.03-0.84c-0.32-0.27-0.5-0.49-0.55-1.64c-0.02-0.64,0.05-1.5,0.2-2.57l3.66-27.57
		c0.25-1.93,0.6-3.1,0.93-3.53c0.31-0.39,0.45-0.53,1.55-0.59c0.53-0.02,1.23,0.04,2.1,0.15l1.45,0.2l0.64-4.52l-1.47-0.2
		L312.01,620.91L312.01,620.91z M313.46,630.27l-3.68,27.58c-0.19,1.51-0.46,2.39-0.66,2.63c-0.18,0.19-0.09,0.23-0.86,0.3
		c-0.36,0.01-0.89-0.03-1.54-0.12c-4.22-0.57-6.71-1.75-8.15-3.33c-1.45-1.59-2.09-3.78-2.17-6.91c-0.06-2.3,0.21-5.04,0.63-8.17
		c0.73-5.55,1.76-9.59,3.38-12.03c1.64-2.42,3.63-3.55,7.35-3.68h0.03c1.02-0.03,2.16,0.04,3.44,0.21c1.31,0.17,1.96,0.48,2.14,0.63
		c0.14,0.15,0.22,0.23,0.26,0.89C313.64,628.74,313.57,629.43,313.46,630.27"/>
        <path class="st0" d="M427.9,644.98l0.07,1.25c0.03,0.47,0.05,0.91,0.05,1.32c-0.02,1.8-0.3,2.84-1.01,3.64
		c-0.73,0.82-2.23,1.63-5.08,2.22l-1.02,0.23l-6.44-30.32c-0.27-1.23-0.39-2.17-0.39-2.81c0.04-0.98,0.16-1.16,0.5-1.46
		c0.36-0.32,1.31-0.7,2.88-1.01l1.44-0.31l-0.93-4.46l-1.44,0.31l-19.15,4.04l0.93,4.5l1.45-0.31c1-0.22,1.79-0.32,2.34-0.32
		c0.92,0.05,1.04,0.14,1.4,0.55c0.36,0.45,0.79,1.56,1.17,3.35l6.44,30.33l-0.96,0.21c-1.38,0.29-2.51,0.41-3.42,0.41
		c-1.64-0.01-2.46-0.37-3.16-1.01c-0.71-0.65-1.33-1.81-1.93-3.49l-0.42-1.22l-4.59,0.95l3.11,12.62l34.96-7.43l-2.2-12.82
		L427.9,644.98L427.9,644.98z"/>
        <path class="st0" d="M385.29,662.4c-0.28,0.02-0.55,0.04-0.8,0.04c-1.83,0.04-2.43-0.24-2.68-0.56c-0.34-0.31-0.71-1.49-0.82-3.79
		l-1.28-21.57c-0.28-4.72-1.55-8.61-4.36-11.27c-2.81-2.66-6.93-3.84-12.32-3.71c-0.39,0.03-0.81,0.04-1.22,0.06
		c-6.53,0.39-10.76,2.35-13.22,5.38c-2.46,3.04-2.99,6.81-2.91,10.43c0.01,0.38,0.03,0.77,0.06,1.16l1.28,21.55
		c0.03,0.34,0.04,0.68,0.05,0.97c0.06,2-0.26,2.79-0.54,3.03c-0.26,0.31-1.22,0.67-3.25,0.76l-1.45,0.1l0.24,4.57l18.65-1.14
		l-0.31-4.53l-1.46,0.08c-0.29,0.02-0.56,0.04-0.8,0.05c-1.82,0.04-2.42-0.25-2.67-0.56c-0.33-0.32-0.71-1.49-0.82-3.78l-1.27-21.55
		c-0.02-0.44-0.05-0.86-0.06-1.26c-0.08-3.45,0.46-5.65,1.56-6.95c1.08-1.3,2.98-2.13,6.43-2.34c0.21-0.01,0.41-0.03,0.6-0.03
		c3.46-0.04,4.99,0.9,6.05,2.4c1.06,1.56,1.54,4.11,1.71,7.17l1.29,21.56c0.02,0.33,0.03,0.63,0.04,0.93
		c0.06,2.03-0.26,2.85-0.55,3.1c-0.25,0.32-1.2,0.67-3.24,0.77l-1.46,0.09l0.25,4.55l21.02-1.25l-0.26-4.55L385.29,662.4
		L385.29,662.4z"/>
        <path class="st0" d="M446.42,88.13c3.2,1.29,6.28,2.11,9.18,2.27c0.08,0,0.16,0.02,0.24,0.02c5.52,0.29,10.46-2.33,12.81-8.34
		c0.55-1.36,0.85-2.7,0.91-3.99c0.16-3.06-0.91-5.8-2.38-8.34c-1.56-2.64-4.2-5.35-6.37-8.08c-2.2-2.72-3.76-5.43-3.61-7.42
		c0.02-0.43,0.11-0.84,0.28-1.25c0.7-1.64,2.1-2.6,4.58-2.51c0.97,0.05,2.08,0.29,3.33,0.8c2.19,0.9,3.37,2.01,4.03,3.15
		c0.67,1.14,0.86,2.41,0.79,3.72c-0.04,0.78-0.18,1.58-0.36,2.31l-0.3,1.23l4.34,1.76l0.52-1.44l3.8-10.55l-1.02-0.63
		c-1.65-1.02-5.38-3.47-9.56-5.15c-2.78-1.13-5.39-1.77-7.8-1.9c-5.47-0.36-10,2.3-11.96,7.35c-0.55,1.36-0.85,2.7-0.92,3.99
		c-0.2,3.83,1.51,7.13,3.55,10.05c1.86,2.61,4.02,4.97,5.62,7.22c1.63,2.25,2.6,4.31,2.48,6.2c-0.03,0.59-0.15,1.19-0.41,1.83
		c-0.9,2.1-2.63,3.28-5.44,3.17c-1.01-0.05-2.16-0.31-3.42-0.81c-2.79-1.15-4.19-2.58-4.98-4.04c-0.78-1.47-0.94-3.07-0.86-4.59
		c0.05-0.87,0.17-1.71,0.29-2.44l0.18-1.15l-4.23-1.72l-4.54,12.48l0.86,0.66C437.89,83.37,441.49,86.13,446.42,88.13"/>
        <path class="st0" d="M639.97,226.82c-0.48,0.4-1.47,0.91-3,1.48l-26.03,9.81c-1.64,0.63-2.77,0.9-3.37,0.87
		c-0.53-0.04-0.63-0.09-1.01-0.47c-0.35-0.39-0.8-1.24-1.28-2.56l-0.51-1.38l-4.29,1.59l0.52,1.39l6.91,18.32l4.28-1.63l-0.52-1.38
		c-0.52-1.34-0.75-2.29-0.72-2.8c0.05-0.51,0.09-0.63,0.55-1.06c0.48-0.41,1.47-0.92,2.98-1.48l26.04-9.81
		c1.63-0.62,2.76-0.88,3.36-0.85c0.54,0.04,0.66,0.1,1.03,0.48c0.35,0.39,0.81,1.23,1.29,2.54l0.52,1.38l4.25-1.6l-7.41-19.72
		l-4.27,1.66l0.51,1.36c0.52,1.37,0.74,2.32,0.72,2.84C640.48,226.28,640.44,226.39,639.97,226.82"/>
        <path class="st0" d="M651.83,258.95c-0.06,0.8-0.13,0.91-0.55,1.28c-0.46,0.36-1.55,0.79-3.3,1.2l-27.05,6.53
		c-1.33,0.32-2.32,0.48-2.98,0.47c-0.86-0.04-1-0.15-1.32-0.5c-0.32-0.38-0.71-1.3-1.06-2.81l-0.36-1.46l-4.41,1.14l0.34,1.41
		l7.72,31.95l12.09-2.39l-1.13-4.67l-1.38,0.27c-0.65,0.12-1.25,0.18-1.78,0.18c-1.18-0.03-1.92-0.3-2.63-0.96
		c-0.71-0.68-1.39-1.91-1.89-3.96l-1.38-5.79c-0.22-0.91-0.34-1.55-0.33-1.86c0.07-0.39-0.08-0.11,0.18-0.35
		c0.31-0.21,1.21-0.53,2.67-0.87l11.59-2.79l1.63,6.79c0.22,0.87,0.31,1.55,0.3,2c-0.05,0.8-0.13,0.88-0.48,1.19
		c-0.37,0.31-1.28,0.67-2.68,0.99l-1.41,0.35l1.05,4.57l15.92-3.83l-1.11-4.57l-1.43,0.34c-1.17,0.28-2.03,0.42-2.56,0.42
		c-0.66-0.05-0.65-0.08-0.91-0.35c-0.25-0.29-0.6-1.12-0.92-2.5l-1.64-6.79l9.7-2.34c0.97-0.24,1.7-0.35,2.17-0.34
		c0.58,0.03,0.63,0.09,0.81,0.25c0.16,0.16,0.45,0.69,0.69,1.69l0.96,4.01c0.36,1.47,0.5,2.64,0.49,3.55
		c-0.04,1.61-0.43,2.33-0.99,2.9c-0.58,0.57-1.53,1.01-2.77,1.4l-1.29,0.41l1.08,4.65l11.88-3.39l-7.82-32.42l-4.44,1.13l0.35,1.41
		C651.71,257.56,651.83,258.4,651.83,258.95"/>
        <path class="st0" d="M654.83,362.81l1.22,0.3c2,0.48,3.3,1.03,4.02,1.78c0.71,0.74,1.19,1.86,1.2,4.21c0,0.56-0.03,1.19-0.09,1.88
		l-0.09,1.06l-30.9-2.71c-2.1-0.16-3.28-0.51-3.66-0.85c-0.34-0.27-0.56-0.6-0.59-2.07c0-0.43,0.03-0.93,0.08-1.5l0.13-1.47
		l-4.54-0.36l-0.13,1.45l-1.72,19.51l4.56,0.36l0.13-1.45c0.14-1.84,0.48-2.83,0.77-3.14c0.24-0.28,0.71-0.55,2.25-0.56
		c0.52,0,1.13,0.04,1.84,0.1l30.89,2.71l-0.09,0.97c-0.28,3.25-1,4.87-1.86,5.65c-0.84,0.81-2.23,1.19-4.54,1.28l-1.28,0.06
		l-0.45,4.66l12.98,0.74l3.13-35.64l-12.88-1.6L654.83,362.81L654.83,362.81z"/>
        <path class="st0" d="M556.83,155.92c-1.57-0.09-2.45-0.62-4.06-2.6l-0.9-1.16l-3.6,2.82l0.92,1.16l10.68,13.54l3.59-2.81
		l-0.92-1.16c-1.26-1.56-1.67-2.62-1.61-2.83c0.03-0.12-0.02-0.17,0.4-0.52c0.4-0.32,1.06-0.6,1.78-0.8l0.03-0.01l5.75-1.85
		l9.1,11.54l-3.36,5.47c-0.37,0.65-0.81,1.2-1.23,1.53c-0.16,0.11-0.17,0.09-0.22,0.1c-0.06,0.01-0.41-0.1-0.9-0.53
		c-0.47-0.4-1.03-1.04-1.59-1.75l-0.91-1.14l-3.59,2.8l13.22,16.8l3.59-2.81l-0.91-1.16c-1.41-1.8-1.85-2.85-1.81-3.87
		c0.02-0.96,0.52-2.27,1.74-4.29l20.29-33.2l-4.55-5.77l-36.25,11.54C559.4,155.66,557.89,155.96,556.83,155.92 M589,153.32
		l-7.74,12.56l-6.37-8.09L589,153.32L589,153.32z"/>
        <path class="st0" d="M616.84,187.58l-24.32,13.5c-1.73,0.96-2.9,1.35-3.43,1.33c-0.39-0.02-0.55-0.06-0.96-0.42
		c-0.4-0.37-0.93-1.12-1.53-2.22l-0.71-1.28l-4.01,2.18l0.72,1.29l9.49,17.12l4-2.21l-0.71-1.29c-0.82-1.45-1.16-2.44-1.13-2.9
		c0.02-0.37,0.07-0.55,0.51-1.04c0.45-0.47,1.33-1.07,2.64-1.8l8.72-4.82l0.45,0.81c1.51,2.71,3.29,5.76,5.62,8.21
		c2.31,2.43,5.28,4.33,8.98,4.33c2.12,0,4.41-0.63,6.84-1.97c4.69-2.55,6.85-6.49,6.8-10.65c-0.01-3.34-1.23-6.75-3.07-10.1
		l-9.58-17.27l-4.01,2.18l0.72,1.29c0.83,1.46,1.16,2.44,1.13,2.9c-0.02,0.37-0.06,0.55-0.51,1.03
		C619.02,186.26,618.15,186.87,616.84,187.58 M620.99,195.1l0.71,1.28c1.43-0.81,2.34-1.13,2.58-1.09c0.15,0.02,0.12-0.03,0.36,0.19
		c0.24,0.2,0.6,0.72,1.04,1.52c1.13,2,1.77,3.7,1.76,5.02c-0.03,1.68-0.84,3.28-4.46,5.35c-2.01,1.11-3.56,1.51-4.73,1.51
		c-1.5-0.02-2.55-0.58-3.63-1.66c-1.06-1.07-2.02-2.67-2.97-4.38l-0.37-0.69l10.42-5.76L620.99,195.1L620.99,195.1z"/>
        <path class="st0" d="M657.64,407.52c-0.32,1.59-0.7,2.54-1.01,2.9c-0.3,0.32-0.45,0.44-1.41,0.48c-0.65,0.02-1.61-0.13-2.85-0.39
		l-27.22-5.78c-1.82-0.38-2.94-0.78-3.39-1.14c-0.4-0.36-0.5-0.46-0.54-1.37c-0.01-0.56,0.11-1.36,0.32-2.36l0.31-1.45l-4.46-0.93
		l-0.31,1.43l-4.07,19.14l4.45,0.94l0.31-1.43c0.32-1.58,0.7-2.52,1.02-2.88c0.3-0.33,0.48-0.47,1.46-0.5c0.65,0,1.58,0.12,2.8,0.38
		l27.22,5.79c1.81,0.37,2.92,0.8,3.36,1.16c0.41,0.36,0.51,0.49,0.56,1.4c0,0.55-0.11,1.34-0.32,2.34l-0.3,1.44l4.47,0.93
		l4.37-20.57l-4.47-0.97L657.64,407.52L657.64,407.52z"/>
        <path class="st0" d="M661.93,306.06c0.03,0.48,0.04,0.92,0.03,1.29c-0.04,1.55-0.28,1.94-0.62,2.2c-0.36,0.32-1.55,0.65-3.72,0.75
		l-27.77,1.58c-0.6,0.04-1.14,0.05-1.61,0.05c-1.68-0.03-2.23-0.32-2.46-0.61c-0.3-0.3-0.61-1.28-0.7-3.19l-0.08-1.45l-4.54,0.19
		l0.08,1.49l0.94,16.54l4.55-0.29l-0.09-1.46c-0.03-0.5-0.04-0.95-0.04-1.34c0.04-1.56,0.29-1.93,0.62-2.18
		c0.36-0.31,1.55-0.64,3.72-0.74l23.64-1.33l-31.65,20.88l0.48,8.46l36.86-2.1c0.63-0.03,1.2-0.05,1.68-0.04
		c1.65,0.03,2.17,0.31,2.39,0.58c0.28,0.28,0.6,1.29,0.7,3.24l0.08,1.47l4.54-0.25l-1.02-18.01l-4.54,0.3l0.08,1.46
		c0.03,0.5,0.05,0.94,0.05,1.31c-0.05,1.54-0.29,1.93-0.63,2.19c-0.37,0.31-1.57,0.65-3.72,0.75l-21.81,1.23l29.88-19.74
		l-0.84-14.98l-4.55,0.29L661.93,306.06L661.93,306.06z"/>
        <path class="st0" d="M615.2,430.04c-0.01-0.74,0.2-1.67,0.68-2.88l0.52-1.37l-4.25-1.68l-0.53,1.39l-6.17,16.08l4.25,1.69
		l0.52-1.39c0.48-1.24,0.91-2.09,1.25-2.5c0.36-0.43,0.39-0.37,0.53-0.39c0.08,0,0.24,0.02,0.48,0.12c0.51,0.19,1.05,0.6,1.62,1.13
		l4.54,4l-5.27,13.73l-6.45-0.09h-0.03c-0.07,0.01-0.13,0.01-0.2,0.01c-0.6,0-1.22-0.1-1.7-0.27c-0.26-0.18-0.15,0.01-0.24-0.57
		c-0.02-0.58,0.3-1.7,0.75-2.86l0.52-1.36l-4.25-1.67l-7.66,19.97l4.25,1.64l0.53-1.38c0.77-2.01,1.43-2.94,2.24-3.44
		c0.81-0.54,2.19-0.81,4.64-0.8h0.08l38.92,0.43l2.61-6.85l-28.46-25.24C616.02,432.91,615.19,431.55,615.2,430.04 M623.35,448.44
		l11.06,9.84l-14.75-0.2L623.35,448.44L623.35,448.44z"/>
        <path class="st0" d="M624.39,499.82c-0.66,1.06-1.22,1.78-1.63,2.12c-0.43,0.36-0.61,0.4-0.95,0.42c-0.52,0.01-1.66-0.42-3.42-1.53
		l-23.56-14.79c-1.23-0.77-2.07-1.42-2.5-1.89c-0.43-0.5-0.48-0.71-0.48-1.04c-0.02-0.46,0.35-1.44,1.28-2.89l0.78-1.25l-3.86-2.41
		l-0.78,1.24l-17.47,27.87l10.17,6.97l2.54-4.07l-1.14-0.81c-1.85-1.32-2.54-2.38-2.53-3.78c0.02-0.97,0.42-2.29,1.51-4.03
		l3.17-5.03c0.48-0.77,0.85-1.3,1.08-1.51c0.19-0.16,0.19-0.16,0.2-0.15c0.02,0,0.02,0,0.04-0.01c0.14-0.05,1.1,0.31,2.67,1.32
		l10.09,6.32l-3.71,5.95c-0.58,0.92-1.07,1.49-1.43,1.77c-0.37,0.29-0.52,0.31-0.8,0.32c-0.43,0.03-1.38-0.35-2.77-1.24l-1.25-0.78
		l-2.48,4l13.84,8.66l2.49-3.99l-1.24-0.78c-1.06-0.65-1.78-1.19-2.14-1.58c-0.35-0.4-0.35-0.49-0.36-0.72
		c-0.02-0.3,0.29-1.16,1.15-2.5l3.71-5.93l8.46,5.28c0.93,0.57,1.55,1.06,1.85,1.41c0.3,0.36,0.3,0.45,0.31,0.64
		c0.01,0.21-0.17,0.79-0.73,1.67l-2.21,3.52c-2.27,3.56-3.77,4.16-4.95,4.15c-0.82-0.01-1.82-0.4-2.98-1.02l-1.2-0.63l-2.54,4.03
		l10.72,6.11l17.69-28.21l-3.84-2.47L624.39,499.82L624.39,499.82z"/>
        <path class="st0" d="M525.36,85.21c2.19-1.24,2.95-4.13,1.73-6.27c-1.25-2.2-4.06-2.96-6.27-1.73c-2.18,1.26-2.98,4.07-1.72,6.26
		C520.32,85.61,523.16,86.45,525.36,85.21"/>
        <path class="st0" d="M498.61,114.44c1.22,2.14,4.07,2.98,6.27,1.74c2.19-1.25,2.94-4.13,1.72-6.27c-1.25-2.2-4.06-2.96-6.26-1.73
		C498.16,109.44,497.36,112.26,498.61,114.44"/>
        <path class="st0" d="M525.74,113.32c0.01-2.52-2.04-4.62-4.55-4.62c-2.46-0.01-4.61,2.03-4.65,4.55c-0.02,2.52,2.1,4.61,4.57,4.63
		C523.64,117.9,525.7,115.85,525.74,113.32"/>
        <path class="st0" d="M504.53,84.66c2.52,0.02,4.58-2.04,4.62-4.56c0.01-2.52-2.04-4.62-4.55-4.63c-2.46-0.01-4.61,2.03-4.64,4.56
		C499.94,82.55,502.06,84.64,504.53,84.66"/>
        <path class="st0" d="M492.01,99.52c2.18,1.27,5.02,0.54,6.28-1.63c1.24-2.13,0.55-5.01-1.62-6.3c-2.17-1.28-5.04-0.48-6.3,1.64
		C489.09,95.41,489.84,98.23,492.01,99.52"/>
        <path class="st0" d="M529.07,101.78c2.18,1.27,5.02,0.54,6.28-1.63c1.24-2.13,0.55-5.01-1.62-6.3c-2.17-1.28-5.04-0.48-6.3,1.64
		C526.16,97.67,526.9,100.48,529.07,101.78"/>
        <path class="st0" d="M502.75,89.76c-3.79,5.53-2.37,13.12,3.16,16.91c5.53,3.79,13.12,2.38,16.91-3.16
		c3.79-5.53,2.38-13.12-3.16-16.91C514.13,82.81,506.55,84.23,502.75,89.76 M518.12,88.87c4.29,2.94,5.39,8.82,2.45,13.1
		c-2.94,4.29-8.82,5.39-13.11,2.45c-4.29-2.94-5.38-8.82-2.45-13.1C507.95,87.02,513.83,85.93,518.12,88.87"/>
        <path class="st0" d="M216.57,58.69c2.46,0.12,4.7-1.82,4.84-4.35c0.13-2.52-1.9-4.7-4.36-4.83c-2.52-0.13-4.67,1.83-4.82,4.35
		C212.11,56.39,214.06,58.57,216.57,58.69"/>
        <path class="st0" d="M236.52,88.26c0.13-2.52-1.9-4.7-4.36-4.83c-2.52-0.13-4.67,1.83-4.82,4.35c-0.12,2.52,1.83,4.7,4.35,4.82
		C234.14,92.73,236.38,90.78,236.52,88.26"/>
        <path class="st0" d="M238.97,70.49c-1.33,2.07-0.77,4.98,1.35,6.36c2.11,1.37,5.02,0.71,6.36-1.37c1.37-2.12,0.75-4.96-1.36-6.35
		C243.2,67.78,240.33,68.37,238.97,70.49"/>
        <path class="st0" d="M203.39,72.98c2.11,1.37,5.02,0.71,6.36-1.36c1.37-2.12,0.75-4.97-1.36-6.35c-2.12-1.36-4.99-0.76-6.35,1.35
		C200.71,68.69,201.28,71.59,203.39,72.98"/>
        <path class="st0" d="M209.37,88.16c1.15,2.25,3.93,3.13,6.18,2c2.24-1.16,3.16-3.94,2-6.18c-1.13-2.19-3.93-3.16-6.18-2.02
		C209.12,83.12,208.25,85.96,209.37,88.16"/>
        <path class="st0" d="M237.37,60.12c2.24-1.16,3.16-3.94,2-6.17c-1.13-2.19-3.93-3.16-6.18-2.02c-2.25,1.15-3.12,3.99-2,6.19
		C232.34,60.37,235.12,61.25,237.37,60.12"/>
        <path class="st0" d="M229.06,82.28c6.17-2.63,9.06-9.79,6.43-15.96c-2.63-6.17-9.79-9.05-15.96-6.43
		c-6.17,2.63-9.06,9.79-6.43,15.96C215.73,82.03,222.88,84.91,229.06,82.28 M220.6,62.41c4.78-2.04,10.33,0.2,12.36,4.98
		c2.04,4.78-0.2,10.33-4.98,12.36c-4.78,2.04-10.33-0.2-12.37-4.98C213.58,70,215.82,64.45,220.6,62.41"/>
        <path class="st0" d="M477.46,68.82c0.39,2.49,2.82,4.21,5.25,3.83c2.5-0.39,4.2-2.75,3.83-5.25c-0.4-2.49-2.76-4.23-5.24-3.83
		C478.87,63.96,477.08,66.32,477.46,68.82"/>
        <path class="st0" d="M478.69,86.71c0.88-2.3-0.27-5.03-2.62-5.95c-2.35-0.91-5.05,0.34-5.94,2.64c-0.91,2.36,0.29,5.01,2.63,5.94
		C475.11,90.24,477.8,89.06,478.69,86.71"/>
        <path class="st0" d="M346.25,49.83c2.5-0.39,4.2-2.75,3.83-5.25c-0.4-2.49-2.76-4.23-5.24-3.83c-2.44,0.39-4.23,2.75-3.85,5.25
		C341.38,48.49,343.81,50.21,346.25,49.83"/>
        <path class="st0" d="M242.57,191.2c-2.86,4.95-3.62,10.72-2.14,16.25c1.48,5.53,5.03,10.15,9.98,13.01
		c5.36,3.1,28.6,9.49,48.03,14.52c0.56-0.59,1.91-1.91,4.03-3.3c-21.51-5.53-45-12.01-49.96-14.88c-3.98-2.29-6.83-6.01-8.02-10.44
		c-1.19-4.44-0.58-9.07,1.72-13.05c3.07-5.31,8.78-8.61,14.92-8.61c3,0,5.97,0.8,8.58,2.31c5.47,3.16,26.09,23.7,42.67,40.75
		c1.57-0.28,3.24-0.47,5.05-0.47c0.12,0,0.25,0.01,0.37,0.02c-14.56-15.02-39.33-40.11-45.99-43.96c-3.26-1.88-6.95-2.87-10.69-2.87
		C253.5,180.49,246.39,184.59,242.57,191.2"/>
        <path class="st0" d="M323.99,228.02c2.23,0.5,4.23,1.2,5.97,2c-0.04-0.69-0.05-1.39-0.03-2.1c-17.81-17.17-42.96-42.12-46.49-48.22
		c-2.3-3.98-2.91-8.62-1.72-13.06c1.19-4.44,4.04-8.14,8.02-10.45c2.61-1.5,5.58-2.3,8.58-2.3c6.13,0,11.85,3.29,14.91,8.6
		c3.33,5.77,11.58,36.68,17.51,60.32c0.06-0.2,0.1-0.41,0.17-0.62c0.65-1.97,1.57-3.88,2.58-5.65
		c-5.2-20.46-13.07-50.02-16.62-56.16c-3.81-6.61-10.93-10.71-18.56-10.71c-3.74,0-7.43,0.99-10.69,2.87
		c-4.95,2.86-8.5,7.48-9.98,13.01c-1.48,5.53-0.72,11.3,2.14,16.25C283.66,188.49,309,213.5,323.99,228.02"/>
        <path class="st0" d="M339.72,208.04c-5.73-20.68-11.38-42.64-11.38-48.13c0-9.49,7.72-17.21,17.21-17.21
		c9.49,0,17.2,7.72,17.2,17.21c0,5.23-5.13,25.41-10.56,45.18c1.04,0.45,2.38,1.07,3.85,1.84c5.22-18.96,10.93-41.02,10.93-47.02
		c0-11.81-9.61-21.42-21.42-21.42c-11.81,0-21.42,9.61-21.42,21.42c0,6.55,6.79,32.23,12.34,52.12
		C337.66,210.42,338.81,209.06,339.72,208.04"/>
        <path class="st0" d="M363.19,211.56c5.48-21.26,11.82-44.18,14.65-49.07c3.06-5.31,8.78-8.6,14.91-8.6c3,0,5.97,0.8,8.58,2.3
		c3.99,2.3,6.82,6.01,8.02,10.45c1.19,4.44,0.57,9.08-1.72,13.06c-2.92,5.06-20.69,23.05-36.83,38.85h1.36
		c2.38-2.16,5.21-3.75,8.4-4.62c0.4-0.11,0.8-0.19,1.21-0.29c13.06-12.96,26.76-27.06,29.51-31.84c2.85-4.95,3.62-10.72,2.14-16.25
		c-1.48-5.53-5.02-10.15-9.98-13.01c-3.25-1.88-6.95-2.87-10.69-2.87c-7.64,0-14.75,4.1-18.57,10.71
		c-3.13,5.42-9.61,29.02-14.66,48.56C360.76,209.73,362.01,210.6,363.19,211.56"/>
        <path class="st0" d="M387.54,212.75c0.84-0.06,1.69-0.09,2.54-0.09c1.18,0,2.27,0.07,3.32,0.16c12.39-12.4,24.04-23.55,27.95-25.81
		c2.61-1.51,5.59-2.31,8.58-2.31c6.13,0,11.85,3.29,14.91,8.61c4.74,8.21,1.92,18.76-6.29,23.5c-3.58,2.07-16.85,6.03-32.05,10.15
		l-1.14,1.26c-0.87,0.99-2.19,2.58-3.56,4.35c16.99-4.52,34.31-9.5,38.85-12.11c10.22-5.91,13.74-19.03,7.83-29.25
		c-3.81-6.61-10.92-10.71-18.56-10.71c-3.74,0-7.43,0.99-10.69,2.88C414.49,186.11,400.47,199.72,387.54,212.75"/>
        <path class="st0" d="M340.93,334.74c-1.25-2.2-4.06-2.96-6.27-1.73c-2.18,1.26-2.98,4.08-1.72,6.26c1.22,2.14,4.06,2.98,6.27,1.74
		C341.4,339.77,342.15,336.88,340.93,334.74"/>
        <path class="st0" d="M353.95,384.32c2.19-1.24,2.95-4.13,1.73-6.27c-1.25-2.19-4.06-2.96-6.27-1.73c-2.18,1.26-2.98,4.07-1.72,6.26
		C348.91,384.72,351.75,385.56,353.95,384.32"/>
        <path class="st0" d="M345.26,391.7c2.19-1.24,2.94-4.13,1.72-6.27c-1.25-2.19-4.06-2.96-6.26-1.73c-2.18,1.26-2.98,4.07-1.73,6.26
		C340.22,392.09,343.06,392.93,345.26,391.7"/>
        <path class="st0" d="M363.96,379.06c2.19-1.24,2.94-4.13,1.72-6.27c-1.25-2.2-4.06-2.96-6.26-1.73c-2.18,1.26-2.98,4.07-1.73,6.26
		C358.91,379.45,361.76,380.29,363.96,379.06"/>
        <path class="st0" d="M370.59,359.28c1.23,2.13,4.06,2.98,6.27,1.74c2.19-1.24,2.94-4.12,1.72-6.27c-1.25-2.19-4.06-2.95-6.26-1.72
		C370.13,354.28,369.34,357.1,370.59,359.28"/>
        <path class="st0" d="M347.28,353.02c-2.18,1.25-2.98,4.07-1.72,6.25c1.22,2.14,4.06,2.98,6.27,1.74c2.19-1.24,2.94-4.12,1.72-6.27
		C352.3,352.55,349.49,351.8,347.28,353.02"/>
        <path class="st0" d="M378.7,350.22c2.19-1.24,2.94-4.12,1.73-6.27c-1.25-2.19-4.06-2.96-6.27-1.72c-2.18,1.25-2.98,4.07-1.72,6.25
		C373.66,350.62,376.5,351.46,378.7,350.22"/>
        <path class="st0" d="M349.29,343.95c-1.25-2.19-4.06-2.96-6.27-1.72c-2.18,1.25-2.98,4.07-1.72,6.25c1.22,2.14,4.06,2.98,6.27,1.74
		C349.76,348.98,350.51,346.1,349.29,343.95"/>
        <path class="st0" d="M330.46,293.57c0.53,1.31,1.78,5.33,1.28,8.16c-0.61,3.5-2.12,5.84-2.13,5.86l3.5,2.34
		c0.08-0.13,2.02-3.06,2.78-7.48c0.79-4.57-1.43-10.21-1.52-10.44L330.46,293.57L330.46,293.57z"/>
        <path class="st0" d="M399.91,220.62c-0.33-0.13-8.15-3.22-17.67-0.6c-7.72,2.11-10.33,9.28-11.17,12.89l-5.82-0.62
		c0.14-3-0.06-8.47-2.83-12.49c-3.84-5.57-13.91-9.39-14.34-9.55l-1.27-0.48l-0.96,0.96c-0.27,0.27-6.7,6.75-8.93,13.47
		c-1.65,4.94,0.02,10.08,1.25,12.86l-5.13,2.46c-1.91-1.75-6.1-4.86-12.46-5.68c-11.21-1.47-17.39,5.32-17.65,5.61l-1.32,1.48
		l17.95,17.95l5.95,10.63c0.08,1.2,0.13,2.75,0.06,4.6c-0.16,3.99-5.14,17.61-8.45,25.8c-1.86,4.59-1.65,9.28,0.58,12.84
		c1.56,2.5,4.81,5.57,11.41,6.03c2.45,0.17,4.55-0.38,6.32-1.35l-1.44,4.51l2.85,4.96l5.99-18.68c0.23-0.55,0.42-1.07,0.6-1.57
		c0.18,0.22,0.34,0.45,0.53,0.68c7.9,9.41,14.32,12.72,18,12.72c0.27,0,0.52-0.02,0.76-0.06c1.22-0.17,2.79-0.59,4.55-1.49
		l-5.82,16.61l7.15,0.45l0.96-4.16l-2.3-0.15l4.22-12.01c1.99,0.91,5.03,1.79,8.56,1.08c7.35-1.47,11.36-10.82,10.99-19.01
		c-0.35-7.81-5.7-17.73-6.34-18.89c-0.1-0.68-0.21-1.38-0.37-2.14c-0.96-4.8-0.7-7.57-0.42-10.5c0.18-1.94,0.35-3.97,0.17-6.52
		l2.56-13.18c1.03-4.94,3.09-9.37,4.09-11.82c2.24-5.48,9.87-14.18,9.96-14.26l2.01-2.24L399.91,220.62L399.91,220.62z
		 M324.46,258.99c3.87-2.63,15.29-9.45,30.88-10.27c2.12-0.11,4.21-0.16,6.22-0.16c11.05,0,17.77,1.68,20.58,2.58l-1.49,7.7
		c-2.95-0.8-8.49-1.97-15.47-1.97c-2.54,0-5.09,0.16-7.58,0.47c-11.5,1.46-24.51,6.69-29.2,8.7L324.46,258.99L324.46,258.99z
		 M338.88,306.72c-1.56,3.67-4.55,8.18-9.49,7.84c-3.82-0.27-6.63-1.67-8.12-4.06c-1.5-2.4-1.59-5.69-0.25-9.02
		c0.35-0.86,8.52-21.1,8.76-27.21c0.06-1.62,0.04-3.03-0.02-4.22c2.15-0.93,6.64-2.77,12.03-4.55c0.22,1.72,0.25,3.9-0.47,5.84
		c-1.69,4.55-5.99,12.65-6.03,12.73l-0.25,0.48l0.01,0.55c0.01,0.4,0.23,8.44,5.31,17.07L338.88,306.72L338.88,306.72z
		 M362.13,315.81c-1.22,0.18-6.77-1.48-14.94-11.21c-6.67-7.95-7.74-16.88-7.9-19.07c1-1.91,4.44-8.54,5.99-12.72
		c1.12-3.01,0.96-6.26,0.59-8.58c4.01-1.18,8.26-2.19,12.27-2.7c2.31-0.29,4.68-0.44,7.04-0.44c6.75,0,12.08,1.2,14.66,1.92
		c0.22,2.47,0.06,4.38-0.13,6.37c-0.13,1.34-0.25,2.71-0.27,4.26l-10.44-0.16l1.58,16.06l-5.53,1.29l4.48,1.69l3.95-1.51
		l-2.54-13.84l8.97,2.34c0.08,0.51,0.17,1.03,0.28,1.58c1.37,6.82,0.4,8.97-3.19,16.96c-0.63,1.41-1.34,2.98-2.12,4.78
		C370.39,313.18,364.97,315.4,362.13,315.81 M384.24,291.37c1.27,3.18,2.45,6.92,2.6,10.11c0.32,7.08-3.17,13.8-7.62,14.69
		c-3.25,0.65-5.98-0.7-7.07-1.36c2.26-2.31,4.56-5.6,6.61-10.3c0.77-1.78,1.47-3.34,2.1-4.73
		C382.41,296.32,383.55,293.76,384.24,291.37 M386.8,236.74c-1.44,3.44-2.32,5.61-3.77,10.26c-3.38-1.04-10.39-2.66-21.47-2.66
		c-2.08,0-4.25,0.06-6.43,0.17c-16.66,0.87-28.68,8-33,10.96l-14.54-14.55c2.08-1.51,6.28-3.73,12.45-2.93
		c7.09,0.92,10.91,5.36,10.94,5.4l1.05,1.26l12.01-5.75l-1.21-1.99c-0.04-0.06-3.64-6.22-1.91-11.4c1.45-4.36,5.21-8.86,6.97-10.81
		c3.16,1.35,8.84,4.26,11.06,7.47c2.98,4.33,1.94,11.58,1.93,11.66l-0.32,2.17l14.13,1.51l0.21-2.11c0.01-0.09,1-9.29,8.47-11.34
		c4.86-1.34,9.25-0.92,12.01-0.36C392.72,226.91,388.56,232.5,386.8,236.74"/>
        <polygon class="st0" points="359.36,300.86 361.38,301.48 362.61,303.59 371.82,303.59 372.79,302.01 374.1,301.04 374.63,299.28 
		359.88,299.2 359.36,300.86 	"/>
        <polygon class="st0" points="363.22,273.74 349.36,274.1 351.46,279.98 362.43,276.91 363.22,273.74 	"/>
        <polygon class="st0" points="352.71,345.1 366.41,345.02 367.39,340.8 351.25,340.9 352.71,345.1 	"/>
        <polygon class="st0" points="356.01,354.63 364.23,354.43 365.22,350.19 354.56,350.45 356.01,354.63 	"/>
        <path class="st0" d="M349.76,83.25c1.21,1.15,2.42,2.71,3.57,4.56c0.14,0.24,0.29,0.48,0.43,0.73c0.14,0.23,0.28,0.47,0.41,0.72
		c0.17,0.31,0.35,0.63,0.52,0.95c0.1,0.19,0.19,0.38,0.29,0.56c0.2,0.4,0.4,0.81,0.6,1.23c0.05,0.12,0.11,0.24,0.16,0.36
		c0.23,0.49,0.45,0.99,0.65,1.5c2.22,5.32,3.76,11.64,3.76,17.7c0,8.58-3.28,13.51-7.53,15.89c-1.09,0.61-2.26,1.06-3.44,1.35
		c-0.04,0.01-0.07,0.01-0.1,0.02c-0.51,0.12-1.02,0.21-1.53,0.28c-0.12,0.01-0.24,0.03-0.36,0.05c-0.55,0.06-1.11,0.1-1.66,0.1
		c-0.55,0-1.11-0.04-1.66-0.1c-0.12-0.01-0.24-0.03-0.36-0.05c-0.51-0.07-1.02-0.16-1.53-0.28c-0.04-0.01-0.07-0.02-0.11-0.02
		c-1.18-0.3-2.34-0.74-3.43-1.35c-4.25-2.38-7.53-7.31-7.53-15.89c0-6.06,1.54-12.38,3.75-17.69c0.21-0.51,0.43-1.02,0.66-1.51
		c0.06-0.12,0.11-0.24,0.16-0.36c0.19-0.42,0.4-0.83,0.6-1.23c0.1-0.19,0.19-0.37,0.29-0.56c0.17-0.32,0.34-0.64,0.52-0.95
		c0.14-0.24,0.28-0.48,0.41-0.72c0.15-0.25,0.29-0.49,0.44-0.72c1.15-1.85,2.36-3.41,3.57-4.56C198.6,85.52,83.2,202.3,83.2,345.54
		c0,68.47,26.38,130.9,69.5,177.66v13.34h26.97c-1.85,2.27-2.97,5.16-2.97,8.31c0,7.26,5.91,13.16,13.17,13.16
		c0.67,0,1.33-0.06,1.97-0.16c42.67,31,94.98,49.47,151.52,49.96V597.3c-0.01,0-0.01-0.01-0.01-0.01
		c-1.41-1.59-9.76-11.23-11.8-19.37c-1.8-7.21,0.49-13.99,6.71-20.22c2.41,0.04,4.83,0.06,7.28,0.06c2.44,0,4.86-0.03,7.28-0.06
		c6.22,6.23,8.51,13.01,6.71,20.22c-2.03,8.13-10.4,17.81-11.8,19.38h-0.01v10.53c56.64-0.43,109.03-18.9,151.76-49.93
		c0.57,0.07,1.14,0.12,1.72,0.12c7.26,0,13.17-5.9,13.17-13.16c0-3.15-1.12-6.05-2.97-8.31h26.97v-13.35
		c43.12-46.76,69.5-109.18,69.5-177.66C607.87,202.3,492.47,85.52,349.76,83.25 M364.37,111.56c0-5.55-1.25-11.67-3.27-17.22
		c77.83,7.08,142.21,66.65,154.27,144.71h-34.18c-11.72-60.57-61.69-105.38-122.34-111.14
		C362.11,124.43,364.37,119.16,364.37,111.56 M480.87,319.82h40.72v174.13h-40.72V319.82L480.87,319.82z M521.59,508.7h-40.72v-8.43
		h40.72V508.7L521.59,508.7z M480.87,305.08h40.72v8.43h-40.72V305.08L480.87,305.08z M474.55,298.76h-1.31v-15.21h55.99v15.21
		h-1.31H474.55L474.55,298.76z M526.14,277.23h-10.78c1.72-2.04,3.84-4.96,5.39-8.47C522.3,272.28,524.41,275.19,526.14,277.23
		 M522.92,260.58h5.47v12.74C526.02,270.27,523.3,265.67,522.92,260.58 M510.99,275.81c-2.4-2.59-7.11-8.46-7.6-15.23h15.2
		C518.09,267.34,513.39,273.22,510.99,275.81 M506.62,277.23h-10.78c1.72-2.04,3.84-4.96,5.39-8.47
		C502.78,272.28,504.9,275.19,506.62,277.23 M491.48,275.81c-2.41-2.59-7.11-8.46-7.6-15.23h15.21
		C498.58,267.34,493.88,273.22,491.48,275.81 M487.11,277.23h-10.79c1.73-2.04,3.84-4.96,5.39-8.47
		C483.27,272.28,485.39,275.19,487.11,277.23 M474.07,273.32v-12.74h5.46C479.17,265.67,476.43,270.27,474.07,273.32 M473.24,245.37
		h55.99v8.89h-55.99V245.37L473.24,245.37z M345.54,133.58c63.08,0,116.75,44.12,129.2,105.47h-4.16
		c-2.75-8.64-10.82-14.92-20.36-14.92c-6.43,0-31.3,6.55-51.03,12.04c-1.14,1.66-2.11,3.25-2.61,4.47l-0.3,0.71
		c22.19-6.23,47.93-13,53.94-13c8.11,0,14.9,5.65,16.7,13.21v19.02h2.93v16.65h-2.93v27.84h7.63V508.7h-5.96
		c-4.88-3.12-11.12-5.99-18.45-8.55c0.79-6.39,9.8-79.93,10.14-114.65c0.03-3.63,0.07-7.89,0.1-12.57h-4.22
		c-0.03,4.66-0.07,8.9-0.1,12.52c-0.32,33.39-8.77,103.26-10.01,113.33c-3.75-1.19-7.74-2.32-11.97-3.37
		c2.75-17.79,11.93-78.88,13.26-109.67c0.16-3.69,0.34-8.04,0.54-12.82h-4.22c-0.19,4.7-0.37,8.98-0.53,12.62
		c-1.31,30.41-10.38,90.84-13.16,108.89c-9.04-2.06-19.04-3.76-29.68-5.09c-1.62-5.33-3.3-9.75-4.33-12.28
		c1.52-0.41,2.36-0.8,2.53-0.88l1.08-0.54l0.08-1.21c0.05-0.84,1.27-20.69-5.17-35.47c-0.46-1.05-0.92-2.06-1.38-3.04
		c1.44,0.45,3.02,0.78,4.66,0.78c0.99,0,1.99-0.12,2.98-0.39c8.39-2.32,14.37-16.57,19.59-31.62c3.74-10.76,6.03-18.31,6.68-20.49
		c0.54,0.17,1.04,0.34,1.46,0.48c3.35,1.12,6.5-0.38,7.64-3.64c1.08-3.02,0.12-6.93-3.34-8.23c-0.45-0.17-1.04-0.37-1.72-0.6
		c0.23-1,1.24-3.48,5.66-5.84c5.62-3,8.77-2.8,12.76-2.54c1.23,0.08,2.5,0.15,3.89,0.15c5.3,0,7.87-3.18,8.79-5.88h1.96v-74.25
		l-11.54-10.18l-54.07-0.01v71.95l8.65,12.51l3.98-0.01c-0.52,0.64-1.09,1.35-1.76,2.12c-3.41,3.98-2.03,7.82-0.82,9.29l0.42,0.51
		l0.64,0.18c0.17,0.05,17.6,4.99,21.69,6.53c1.08,0.4,1.19,1.93,0.86,2.89c-0.58,1.63-1.91,1.19-2.35,1.04
		c-5.49-1.83-21.74-6.81-21.9-6.87l-0.79-0.24l-0.74,0.35c-0.07,0.03-0.61,0.29-1.48,0.79c-0.77-5.22-2.88-17.42-6.07-20.86
		c-2.24-2.4-4.84-4.07-6.6-5.04c1.36-3.98,1.87-7.96-2.05-10.48c-3.41-2.19-8.79-4.38-10.69-5.12c-0.09-0.29-0.21-0.57-0.37-0.84
		c-1.25-2.19-4.06-2.96-6.26-1.73c-2.19,1.26-2.98,4.07-1.73,6.26c1.23,2.14,4.07,2.98,6.27,1.74c0.54-0.31,1-0.72,1.36-1.19
		c2.2,0.89,6.47,2.7,9.14,4.42c1.82,1.17,1.41,3.1-0.83,8.68l-0.42,1.06c-1.78,4.5-3.71,8.63-4.64,10.55l-59.93,1.46l-10.71-27.51
		c1.76-1.07,3.47-1.93,7.21-3.18c0.33-0.11,0.67-0.22,1-0.32l8.05,22.72l13.72-0.33l-1.37-4.18l-9.4,0.23l-6.94-19.58
		c1.01-0.26,1.97-0.5,2.84-0.7c1.41,1.5,3.75,1.97,5.64,0.92c2.19-1.24,2.94-4.12,1.72-6.27c-1.25-2.19-4.06-2.96-6.26-1.73
		c-1.16,0.67-1.92,1.79-2.2,3.01c-2.35,0.55-5.3,1.31-8.14,2.26c-6.14,2.05-9.43,4.44-9.64,4.58l-1.34,0.93l12.9,33.46l29.74-0.73
		c-0.5,1.25-0.47,2.7,0.25,3.95c1.22,2.13,4.06,2.98,6.27,1.74c2.07-1.17,2.83-3.8,1.89-5.9l8.57-0.21
		c-0.35,1.16-0.26,2.45,0.39,3.58c1.22,2.14,4.06,2.98,6.27,1.74c1.95-1.1,2.75-3.5,2.05-5.53l4.94-0.12
		c1.65,2.11,4.45,6.34,4.6,9.75c0.26,5.29-1.88,12.92-4.01,17.43c-0.7,1.48-1.2,2.51-1.56,3.22c-4.99-0.83-18.41-2.85-31.03-2.85
		c-5.58,0-12.6,0.63-20.84,1.86l-40.06-105.21c0.15-3.88,1.15-8.53,3.56-10.01c4.26-2.62,9.08-3.1,9.13-3.11l3.73-0.35l-2.23-3
		c-0.22-0.3-5.46-7.22-12.73-5.37c-2.4,0.61-4.23,1.71-5.61,2.93c-0.5-1.83-1.45-3.73-3.19-5.19c-4.21-3.51-8.93-4.38-9.13-4.42
		l-0.54-0.09l-0.01-0.03l-0.02,0.03l-0.03-0.01l0.01,0.03l-0.35,0.42c-0.13,0.15-3.21,3.84-4.2,9.23c-0.41,2.24,0.07,4.3,0.85,6.03
		c-1.83-0.05-3.95,0.26-6.18,1.33c-6.77,3.22-6.39,11.9-6.37,12.27l0.2,3.74l3.09-2.11c0.04-0.03,4.05-2.74,9.01-3.44
		c2.79-0.39,6.52,2.52,9.11,5.4l18.38,48.26c-2.42,1.14-6.25,3.48-10.34,8.09c-6.52,7.33-9.25,14.86-9.36,15.17l-0.78,2.19
		l2.25,0.57c0.02,0.01,0.36,0.09,0.91,0.23c-0.47,1.52-1.35,3.99-2.99,7.82c-1.56,3.63-3.64,5.79-6.04,8.28
		c-3.39,3.51-7.24,7.5-10.21,16.32c-4,11.84,0.78,21.73,0.99,22.14l0.79,1.6l1.7-0.51c0.07-0.02,1.4-0.42,3.56-1.07
		c2.57,3.49,9.8,12.09,20.71,15.21c1.52,0.43,2.9,0.8,4.21,1.12c-1.12,3.15-4.03,11.48-4.91,15.65c-1.07,5.08-1.85,15.37-1.88,15.81
		l-0.08,1.01l0.75,0.69c0.05,0.05,0.5,0.43,1.27,0.96c-1.58,3.69-4.36,10.64-5.82,16.77c-5.85,0.96-11.44,2.04-16.71,3.24
		c-2.79-18.04-11.86-78.49-13.17-108.9c-1.07-24.75-3.07-77.5-4.23-108.28h-4.22c1.16,30.76,3.17,83.68,4.23,108.49
		c1.33,30.79,10.51,91.88,13.26,109.67c-4.23,1.04-8.22,2.17-11.97,3.36c-1.24-10.07-9.69-79.94-10.01-113.33
		c-0.24-24.73-0.48-77.36-0.61-108.19h-4.21c0.13,30.83,0.37,83.49,0.61,108.24c0.33,34.71,9.35,108.25,10.14,114.65
		c-7.33,2.57-13.57,5.44-18.44,8.56h-5.96V305.08h7.63v-27.84h-2.94v-16.65h2.94v-19.02c1.8-7.57,8.59-13.21,16.7-13.21
		c5.87,0,30.52,6.45,52.33,12.55l3.1-3.49c-20.25-5.69-48.51-13.27-55.43-13.27c-9.54,0-17.6,6.28-20.36,14.92h-4.16
		C228.79,177.69,282.46,133.58,345.54,133.58 M274.53,515.2c0.11,0.17,2.79,4.16,9.61,5.65c5.14,1.12,10.34,0.33,12.41-0.08
		c1.95,1.21,7.24,4.17,13.34,4.85c6.1,0.68,12.07-1.12,14.32-1.9c1.91,0.89,6.63,2.71,13.3,2.71c6.6,0,11.03-1.95,12.88-2.96
		c2.69,0.87,10.41,3.06,17.92,2.15c7.11-0.86,12.37-3.7,14.47-5c1.82,0.65,5.63,1.68,10.06,1.04c6.04-0.86,10.59-4.51,10.77-4.67
		l0.83-0.68l-0.06-1.07c-0.03-0.5-0.61-10.55-2.39-19.29c24.54,3.26,45.24,8.58,58.34,15.28c-22.35,11.43-66.76,18.87-114.79,18.87
		c-48.03,0-92.44-7.44-114.79-18.87c10.79-5.52,26.73-10.1,45.73-13.37c-1.31,7.6-2.24,15.52-2.29,15.94l-0.09,0.76L274.53,515.2
		L274.53,515.2z M269.13,272.45c0.44-2.36,1.4-4.34,2.17-5.63c1.42,0.51,3.42,1.41,5.26,2.95c2.85,2.37,2.12,7.43,2.11,7.47
		l4.07,1.03c0.01-0.04,1.53-4.17,6.36-5.41c2.14-0.54,4.11,0.28,5.6,1.29c-1.97,0.55-4.4,1.44-6.73,2.88
		c-4.19,2.58-5.25,8.85-5.51,12.38c-0.61,0.27-1.55,0.63-2.63,1.03c-1.09,0.38-2.04,0.69-2.68,0.88c-2.45-2.55-7.27-6.7-12.14-6.01
		c-2.71,0.38-5.15,1.24-7.02,2.08c0.49-1.72,1.49-3.61,3.48-4.56c4.51-2.13,8.31,0.07,8.35,0.1l2.47-3.39
		C272.25,279.52,268.46,276.1,269.13,272.45 M281.24,294.44L281.24,294.44c0.01,0,0.02-0.01,0.02-0.01
		c0.01-0.01,0.02-0.01,0.03-0.01h0c0.76-0.29,1.4-0.54,1.96-0.76l1.59,4.17c-0.84,0.07-1.69,0.26-2.42,0.66
		c-0.5,0.28-0.99,0.65-1.43,1.04l-1.69-4.45C279.86,294.91,280.49,294.71,281.24,294.44 M284.46,302.18
		c0.34-0.19,1.16-0.2,1.98-0.13l1.42,3.71c-0.73,0.09-1.47,0.27-2.11,0.63c-0.6,0.33-1.16,0.79-1.68,1.27l-1.44-3.78
		C283.17,303.25,283.88,302.5,284.46,302.18 M287.8,310.08c0.29-0.16,0.95-0.19,1.65-0.15l48.29,126.81l-5.64-2.95l-46.35-121.72
		C286.3,311.37,287.13,310.45,287.8,310.08 M328.21,399.87c7.64-1.1,14.13-1.67,19.3-1.67c12.03,0,25.18,1.95,30.18,2.77l-1.29,6.79
		c-4.85-1.06-16.99-3.35-29-2.72c-10.06,0.53-14.67,1.07-16.69,1.39L328.21,399.87L328.21,399.87z M345.39,463.7
		c0.98,1.81,1.69,4.94,2.08,7.18c-0.62-0.02-1.36-0.13-2.14-0.41c-1.3-0.48-2.49-3.22-3.27-5.04c-0.39-0.92-0.77-1.77-1.14-2.42
		c-1.59-2.85-5.46-4.86-5.9-5.07l-1.89,3.77c1.2,0.6,3.39,2.05,4.11,3.35c0.31,0.56,0.61,1.28,0.95,2.05
		c0.15,0.35,0.31,0.72,0.47,1.08l-0.34,0.1c-0.84-0.77-2.17-2-3.28-3.11c-1.25-1.24-3.78-2.69-6.98-4.52
		c-2.22-1.27-4.52-2.58-6.5-3.9c-3.63-2.42-6.35-8.11-6.98-9.53c2.86-2.3,11.66-9.5,13.22-10.8c0.03-0.03,0.06-0.06,0.09-0.09
		l13.73,7.2c0.19,1.04,0.63,2.67,1.61,4.79c0.75,1.61,1.81,2.89,2.94,4.25c1.58,1.89,3.21,3.86,4.36,7.15
		c1.24,3.57,1.38,7.2,1.33,9.31h-0.45c-0.46-2.3-1.2-5.26-2.31-7.32c-2.01-3.73-5.61-6.8-5.76-6.93l-2.72,3.22
		C340.65,458.02,343.77,460.69,345.39,463.7 M311.09,405.71c0.34-0.94,0.53-1.92,0.66-2.92c0.93-0.19,2.2-0.45,3.75-0.76l2.57,6.75
		l-7.76,1.57c-0.53-0.37-1.04-0.73-1.52-1.05C309.79,408.35,310.57,407.15,311.09,405.71 M307.8,390.07
		c-1.1-0.89-1.55-1.26-1.49-3.27c0.01-0.46,0.5-1.4,1.24-2.53c0.86,0.83,1.52,1.51,1.95,1.98l4.49,11.79
		c-0.83,0.16-1.57,0.31-2.2,0.44c-0.29-2.62-1.02-4.9-1.72-6.02C309.34,391.33,308.49,390.63,307.8,390.07 M319.6,412.78l4.36,11.44
		c-0.89-0.08-1.8-0.01-2.69,0.28c-1.14-2.8-3.28-7.47-5.7-9.89c-0.28-0.28-0.6-0.56-0.91-0.83L319.6,412.78L319.6,412.78z
		 M323.72,428.4c0.91,0.14,1.52,0.83,1.87,1.39c1.18,1.85-0.2,3.15-0.49,3.39c-1.59,1.33-10.82,8.89-13.39,10.95
		c-1.86,1.48-4.52,1.27-5.49,0.11c-1.11-1.32-0.31-3.15-0.05-3.67c3.54-2,12.68-9.38,15.08-11.33
		C322.07,428.59,322.95,428.28,323.72,428.4 M296.4,351.86c-0.22-0.13-0.41-0.25-0.64-0.38c-1.85-1.05-3.36-1.78-4.56-2.28
		c1.32-0.96,2.48-1.63,3.39-2.08L296.4,351.86L296.4,351.86z M293.68,355.14c3.15,1.79,4.84,3.37,5.53,4.1l6.94,18.23
		c-3.22-2.54-7.36-5.24-12.13-7.04c-4.57-1.73-11.97-3.73-15.76-4.73c1.21-2.6,3.66-7.18,7.63-11.65c0.56-0.62,1.1-1.19,1.64-1.72
		C288.36,352.57,290.4,353.28,293.68,355.14 M279.84,370.48c1.02,0.28,2.14,0.58,3.29,0.91c0.34,2.28,0.44,7.03-2.79,13.1
		c-4.8,9.01-12.71,16.82-12.79,16.9l2.95,3.01c0.34-0.34,8.44-8.33,13.56-17.93c3.04-5.71,3.55-10.58,3.4-13.8
		c1.85,0.57,3.61,1.15,5.05,1.7c4.69,1.77,8.78,4.57,11.83,7.08c-1.17,1.7-2.22,3.65-2.26,5.24c-0.12,4.09,1.71,5.58,3.05,6.66
		c0.56,0.46,1.01,0.82,1.35,1.37c0.8,1.26,1.86,6.18,0.64,9.56c-0.57,1.56-1.52,2.53-2.92,2.98c-6,1.92-35.81,10.88-43.57,13.21
		c-1.03-3-2.67-9.75-0.13-17.29c2.67-7.92,6.02-11.39,9.25-14.74c2.47-2.56,5.02-5.2,6.88-9.54
		C278.36,374.88,279.31,372.21,279.84,370.48 M277.17,419.89c1.09,1.96,3.25,5.33,6.35,7.85c4.41,3.59,11.06,6.27,11.34,6.38
		l1.57-3.91c-0.06-0.03-6.35-2.56-10.25-5.74c-2.19-1.79-3.84-4.15-4.85-5.84c9.37-2.82,19.14-5.79,23.24-7.08
		c1.7,1.08,5.73,3.74,8.02,6.03c1.92,1.92,3.97,6.45,5.04,9.15c-5.93,4.8-12.44,9.76-13.81,10.31c-2.41,0.96-6.47,1.49-18.39-1.91
		c-8.52-2.44-14.66-8.9-17.53-12.46C270.59,421.87,273.79,420.91,277.17,419.89 M299.58,441.99c0.69,0,1.31-0.03,1.89-0.09
		c-0.15,1.63,0.17,3.44,1.51,5.04c0.82,0.98,1.95,1.63,3.19,2.02c-0.35,1.59-0.76,3.91-1.04,6.91c-0.53,5.75-0.53,11.09-0.53,11.31
		h4.21c0-0.05,0.01-5.38,0.52-10.93c0.3-3.28,0.79-5.69,1.12-7.08c0.12-0.02,0.24-0.06,0.36-0.09c0.88,1.94,3.95,8.18,8.42,11.15
		c2.1,1.4,4.57,2.81,6.75,4.06c2.58,1.47,5.25,2.99,6.1,3.84c1.87,1.87,4.2,3.94,4.3,4.03l0.85,0.76l3.57-0.97
		c0.82,1.08,1.82,2,3.11,2.46c1.42,0.52,2.74,0.68,3.83,0.68c1.57,0,2.64-0.34,2.82-0.4l1.63-0.54l-0.11-0.93h3.61l0.24-1.84
		c0.04-0.27,0.83-6.63-1.42-13.08c-1.4-4.02-3.45-6.48-5.1-8.46c-0.99-1.19-1.84-2.22-2.35-3.32c-1.31-2.83-1.38-4.38-1.39-4.38
		v-1.27l-2.3-1.21l-11.13-29.23c1.86-0.25,5.5-0.63,12.19-1.03c0.94,2.06,3.36,7.77,4.15,13.54c1.02,7.38,0.77,18.51,0.77,18.62
		l4.21,0.1c0.01-0.47,0.26-11.58-0.81-19.29c-0.73-5.25-2.6-10.3-3.82-13.19c3.43-0.11,6.88,0.01,10.14,0.26
		c1.5,2.79,6.97,13.45,9.82,25.29c3.34,13.85,4.15,33.1,4.16,33.3l4.21-0.17c-0.04-0.8-0.84-19.85-4.27-34.1
		c-2.43-10.1-6.56-19.14-8.9-23.81c7.67,0.94,13.35,2.35,13.45,2.38l2.17,0.55l2.76-14.48c0.37-0.77,0.84-1.74,1.44-3.01
		c2.41-5.09,4.7-13.4,4.42-19.44c-0.16-3.48-2.06-7.11-3.73-9.67h0.05l0.57-1.14c0.11-0.23,2.83-5.68,5.34-12.01l0.14-0.37
		c1.45,0.84,3.39,2.14,5.04,3.92c2.04,2.2,4.3,13.28,5.24,20.44l0.14-0.02c-2.1,1.47-4.66,3.48-7.41,6.12
		c-5.99,5.75-7.14,7.11-7.31,7.33l3.29,2.63c0.04-0.05,1.12-1.34,6.93-6.92c4.91-4.71,9.23-7.3,10.87-8.21
		c1.49,0.46,4.8,1.48,8.46,2.61c-0.93,3.22-7.68,16.71-11.64,21.57c-4.96,6.07-8.83,8.94-8.91,9.01l2.8,3.15
		c0.32-0.29,4.21-3.16,9.38-9.5c4.45-5.45,11.38-19.41,12.4-22.98c1.03,0.33,2.05,0.64,3.02,0.95c-0.6,2.03-2.89,9.55-6.65,20.4
		c-2.55,7.36-9.33,26.9-16.74,28.94c-3.53,0.97-7.77-1.21-9.4-2.17c-4.73-9.06-8.7-14.2-8.91-14.47l-3.32,2.59
		c0.06,0.08,6.51,8.42,12.63,22.45c5.12,11.72,5.04,27.5,4.89,32.16c-1.39,0.43-4.1,1.07-8.3,1.23c-5.96,0.23-8-0.73-8.02-0.74
		l-1.22-0.73l-1.15,0.82c-0.07,0.05-6.76,4.67-29.93,5.91c-23.51,1.26-36.94-5.74-37.07-5.81l-0.7-0.37l-0.77,0.18
		c-0.08,0.02-7.6,1.74-13.95,0.76c-4.32-0.67-7.14-2.26-8.4-3.11c0.23-2.83,0.9-10.26,1.71-14.12c0.87-4.12,4.02-13.07,4.93-15.6
		C295.5,441.76,297.76,441.99,299.58,441.99 M287.36,476.42c1.7,0.72,3.81,1.4,6.38,1.8c5.98,0.92,12.57-0.21,14.79-0.66
		c2.89,1.37,14.18,6.11,32.61,6.11c1.91,0,3.9-0.05,5.97-0.16c19.85-1.07,28.37-4.59,31.14-6.08c1.45,0.47,4.24,1,9.11,0.82
		c1.67-0.06,3.11-0.2,4.39-0.37c1.02,2.49,3.2,8.03,5.09,14.64c2.11,7.39,3.02,18.31,3.27,21.83c-1.38,0.93-4.33,2.65-7.86,3.15
		c-3.46,0.49-6.48-0.31-7.91-0.8l-4.36-31l-4.17,0.59l4.35,30.99c-1.98,1.18-6.45,3.44-12.36,4.16c-6.03,0.73-12.47-0.88-15.36-1.75
		l-1.9-30.67l-4.21,0.27l1.89,30.55c-1.46,0.78-5.14,2.37-10.72,2.37c-5.06,0-8.78-1.19-10.68-1.96l2.03-31.21l-4.21-0.27
		l-2.02,31.03c-2.04,0.69-7.22,2.19-12.28,1.64c-5.04-0.56-9.59-3.04-11.38-4.12l5.97-30.11l-4.13-0.82l-6.03,30.41
		c-2.14,0.34-6.04,0.74-9.75-0.07c-3.73-0.81-5.74-2.48-6.54-3.33c0.36-2.99,1.63-12.94,3.16-20.12
		C282.87,487.49,285.72,480.32,287.36,476.42 M402.47,331.13c-0.02-0.02-0.05-0.03-0.07-0.05v-35.05l4.62,6.81v35.02L402.47,331.13
		L402.47,331.13z M407.02,343.89v7.89l-4.62-6.51v-8.2L407.02,343.89L407.02,343.89z M402.47,290.09c-0.02-0.02-0.05-0.03-0.07-0.05
		v-9.71l4.62,6.51v9.99L402.47,290.09L402.47,290.09z M404.72,276.82h10.2l5.33,7.02h-10.28L404.72,276.82L404.72,276.82z
		 M450.2,302.62h9.7v37.21h-9.7V302.62L450.2,302.62z M459.9,353.87h-9.7v-9.83h9.7V353.87L459.9,353.87z M450.2,288.05h9.7v10.36
		h-9.7V288.05L450.2,288.05z M449.88,283.84L449.88,283.84l-7.12-7.02h8.64l8.01,7.02H449.88L449.88,283.84z M426.24,302.62h19.74
		v37.21h-19.74V302.62L426.24,302.62z M445.98,353.87h-19.74v-9.83h19.74V353.87L445.98,353.87z M426.24,288.05h19.74v10.36h-19.74
		V288.05L426.24,288.05z M445.6,283.84h-19.99v-0.01l-5.33-7.01h18.2L445.6,283.84L445.6,283.84z M422.02,298.41h-10.79v-10.36
		h10.79V298.41L422.02,298.41z M422.02,339.83h-10.79v-37.21h10.79V339.83L422.02,339.83z M411.23,344.04h10.79v9.83h-10.79V344.04
		L411.23,344.04z M412.56,362.97c1.81-2.11,3.09-3.77,3.9-4.86l40.92-0.02c-0.7,0.87-1.9,1.67-4.03,1.67
		c-1.29,0-2.48-0.08-3.62-0.15c-4.29-0.27-8.33-0.53-15.01,3.03c-5.4,2.88-7.14,6.25-7.7,8.29c-5.57-1.71-12.98-3.83-15.46-4.54
		C411.34,365.76,411.21,364.54,412.56,362.97 M169.48,319.82h40.73v174.13h-40.73V319.82L169.48,319.82z M210.21,508.7h-40.73v-8.43
		h40.73V508.7L210.21,508.7z M169.48,305.08h40.73v8.43h-40.73V305.08L169.48,305.08z M163.16,298.76h-1.31v-15.21h55.98v15.21
		h-1.31H163.16L163.16,298.76z M170.33,268.76c1.55,3.51,3.67,6.43,5.39,8.47h-10.79C166.66,275.19,168.78,272.28,170.33,268.76
		 M162.68,273.32v-12.74h5.47C167.78,265.67,165.05,270.27,162.68,273.32 M172.49,260.58h15.2c-0.49,6.76-5.19,12.64-7.6,15.23
		C177.68,273.22,172.98,267.34,172.49,260.58 M189.84,268.76c1.55,3.51,3.67,6.43,5.39,8.47h-10.79
		C186.17,275.19,188.29,272.28,189.84,268.76 M192,260.58h15.2c-0.49,6.76-5.2,12.64-7.6,15.23
		C197.19,273.22,192.49,267.34,192,260.58 M209.36,268.76c1.55,3.51,3.67,6.43,5.39,8.47h-10.78
		C205.69,275.19,207.8,272.28,209.36,268.76 M211.54,260.58h5.47v12.74C214.64,270.27,211.91,265.67,211.54,260.58 M161.85,245.37
		h55.98v8.89h-55.98V245.37L161.85,245.37z M332.24,127.91c-60.66,5.76-110.63,50.57-122.34,111.14h-34.18
		c12.06-78.06,76.43-137.63,154.27-144.71c-2.03,5.55-3.28,11.67-3.28,17.22C326.71,119.16,328.96,124.43,332.24,127.91
		 M93.73,345.54c0-109.86,70.72-203.48,169.03-237.79c-48.95,25.8-84.89,73.77-93.45,131.3h-13.78v21.53h2.93v16.65h-2.93v27.84
		h7.63V508.7h-9.24C116.42,464.72,93.73,407.73,93.73,345.54 M159.02,530.22v-15.21h4.14h53.36h4.14v15.21H159.02L159.02,530.22z
		 M189.87,551.7c-3.77,0-6.85-3.08-6.85-6.85c0-3.78,3.07-6.85,6.85-6.85c3.77,0,6.85,3.07,6.85,6.85
		C196.71,548.63,193.64,551.7,189.87,551.7 M201.19,551.55c1.16-1.96,1.84-4.25,1.84-6.69c0-3.15-1.11-6.05-2.97-8.31h24.77
		c3.71,2.14,8.09,4.15,13.01,6.01c-0.62,2.26-1.15,5.23-0.87,8.29c1.23,13.53,8.9,21.43,34.16,35.17
		C245.89,578.16,222.35,566.44,201.19,551.55 M273.25,582.37c-24.1-13.1-31-19.96-32.08-31.91c-0.21-2.32,0.19-4.63,0.67-6.47
		c8.59,2.95,18.65,5.49,29.83,7.56c-0.54,2.47-1,6.19-0.16,10.19c2.01,9.64,11.42,21.65,28.27,30.18
		C290.71,589.56,280.55,586.34,273.25,582.37 M314.93,593.53c-23.9-7.48-37.13-22.17-39.31-32.65c-0.7-3.38-0.26-6.57,0.2-8.6
		c8.58,1.47,17.75,2.66,27.36,3.56c-1.26,3.37-2.76,8.91-1.96,14.7c1.16,8.35,7.44,18.05,19.08,24.57
		C318.7,594.68,316.93,594.16,314.93,593.53 M327.46,578.94c1.66,6.65,6.77,13.84,10.07,17.98c-0.74-0.11-1.59-0.28-2.57-0.53
		c-18.55-4.69-28.21-16.65-29.57-26.42c-0.77-5.57,1.06-11.07,2.17-13.74c8.11,0.67,16.51,1.12,25.11,1.35
		C327.39,564.14,325.59,571.42,327.46,578.94 M345.54,551.44c-50.91,0-97.74-8.36-118.56-20.98V516.4
		c23.23,12.29,68.33,20.03,118.56,20.03c50.22,0,95.32-7.74,118.56-20.03v14.07C443.27,543.08,396.44,551.44,345.54,551.44
		 M353.54,596.92c3.31-4.14,8.42-11.34,10.07-17.98c1.88-7.52,0.08-14.8-5.21-21.36c8.6-0.22,17.01-0.68,25.11-1.35
		c1.11,2.68,2.94,8.17,2.17,13.74c-1.36,9.77-11.02,21.73-29.57,26.42C355.13,596.65,354.27,596.82,353.54,596.92 M370.77,595.13
		c11.64-6.52,17.92-16.22,19.08-24.57c0.8-5.8-0.7-11.34-1.95-14.7c9.62-0.9,18.79-2.1,27.37-3.56c0.47,2.02,0.9,5.19,0.19,8.6
		c-2.18,10.48-15.41,25.17-39.31,32.65C374.15,594.16,372.38,594.68,370.77,595.13 M391.31,591.92
		c16.85-8.53,26.26-20.54,28.27-30.18c0.83-4,0.38-7.73-0.16-10.19c11.18-2.07,21.24-4.61,29.83-7.56c0.48,1.84,0.87,4.14,0.67,6.47
		c-1.08,11.95-7.98,18.81-32.08,31.91C410.52,586.34,400.37,589.56,391.31,591.92 M489.98,551.7
		c-21.32,14.96-45.03,26.72-70.46,34.54c0.1-0.06,0.21-0.11,0.32-0.17c25.35-13.78,33.03-21.68,34.27-35.23
		c0.28-3.05-0.25-6.03-0.87-8.29c4.93-1.86,9.3-3.87,13.02-6.01h24.77c-1.86,2.27-2.97,5.16-2.97,8.31
		C488.04,547.36,488.76,549.7,489.98,551.7 M501.21,551.7c-3.77,0-6.85-3.08-6.85-6.85c0-3.78,3.07-6.85,6.85-6.85
		c3.78,0,6.85,3.07,6.85,6.85C508.06,548.63,504.98,551.7,501.21,551.7 M532.05,530.22h-61.64v-15.21h4.14h53.36h4.14V530.22
		L532.05,530.22z M537.15,508.7h-9.23V305.08h7.63v-27.84h-2.94v-16.65h2.94v-21.53h-13.78c-8.56-57.54-44.5-105.51-93.46-131.31
		c98.31,34.32,169.03,127.93,169.03,237.79C597.34,407.73,574.65,464.72,537.15,508.7"/>
    </g>
</svg>
